<svg width="1920" height="1080" viewBox="0 0 1920 1080" fill="none" xmlns="http://www.w3.org/2000/svg">
<g clip-path="url(#clip0_2196_2254)">
<rect width="1920" height="1080" fill="url(#paint0_radial_2196_2254)"/>
<g opacity="0.4">
<path d="M964.884 718.288L948 701.406L949.086 700.32L965.97 717.202L964.884 718.288Z" fill="white"/>
<path d="M981.755 718.302L964.88 701.414L965.965 700.328L982.84 717.216L981.755 718.302Z" fill="white"/>
<path d="M998.636 718.311L981.761 701.421L982.846 700.335L999.721 717.225L998.636 718.311Z" fill="white"/>
<path d="M1015.51 718.316L998.638 701.428L999.723 700.342L1016.6 717.23L1015.51 718.316Z" fill="white"/>
<path d="M1032.4 718.321L1015.52 701.433L1016.61 700.347L1033.48 717.235L1032.4 718.321Z" fill="white"/>
</g>
<g opacity="0.4">
<path d="M269.483 277.039L245 301.432L246.574 303.001L271.057 278.608L269.483 277.039Z" fill="white"/>
<path d="M293.967 277.027L269.487 301.42L271.062 302.989L295.541 278.596L293.967 277.027Z" fill="white"/>
<path d="M318.453 277.014L293.974 301.41L295.548 302.979L320.028 278.583L318.453 277.014Z" fill="white"/>
<path d="M342.938 277.006L318.458 301.398L320.032 302.967L344.512 278.574L342.938 277.006Z" fill="white"/>
<path d="M367.426 277L342.946 301.393L344.521 302.961L369 278.569L367.426 277Z" fill="white"/>
</g>
<path opacity="0.1" d="M2130.29 647.547C2090.41 799.101 2063.42 995.209 1896.17 1038.49C1733.62 1080.56 1629.5 891.724 1475.64 827.342C1306.97 756.759 1050.1 824.74 973.462 673.019C891.898 511.542 1001.48 284.59 1158.55 178.014C1294.46 85.8014 1474.73 198.194 1645.73 204.456C1809.66 210.459 1998.41 107.816 2113.41 212.978C2232.99 322.325 2169.3 499.33 2130.29 647.547Z" fill="url(#paint1_linear_2196_2254)"/>
<g opacity="0.4">
<path d="M-62.5214 1012.87C-20.1908 1028.02 18.5762 1016.33 54.6691 993.57C90.7814 970.795 124.124 936.999 155.604 908.047C187.8 878.435 226.235 847.592 253.873 812.42C281.493 777.27 298.253 737.883 287.177 691.216C276.422 645.906 241.158 622.688 199.443 603.395C189.018 598.573 178.199 594.001 167.266 589.39C156.335 584.78 145.29 580.131 134.427 575.162C112.701 565.225 91.6713 553.994 73.6627 539.184C53.921 522.949 37.0337 501.738 21.3355 479.111C13.4854 467.797 5.92838 456.12 -1.54121 444.531C-9.01233 432.939 -16.3954 421.433 -23.9026 410.449C-53.9583 366.47 -85.868 331.058 -132.954 331.929C-183.191 332.859 -229.115 361.511 -263.948 403.119C-298.779 444.725 -322.472 499.23 -328.264 551.738C-333.262 597.042 -310.295 634.557 -280.013 671.149C-264.865 689.454 -247.942 707.465 -231.777 726.126C-215.628 744.769 -200.269 764.023 -188.332 784.734C-176.886 804.593 -168.397 826.98 -160.824 849.824C-153.244 872.692 -146.596 895.97 -138.804 917.729C-123.226 961.235 -103.193 998.302 -62.5214 1012.87Z" stroke="#00F0B5"/>
<path d="M-52.7894 934.828C-19.5042 946.747 10.9835 937.559 39.3861 919.647C67.8084 901.722 94.0496 875.122 118.841 852.321C144.199 828.999 174.448 804.727 196.201 777.043C217.937 749.382 231.114 718.403 222.403 681.703C213.948 646.08 186.225 627.818 153.387 612.63C145.18 608.835 136.663 605.235 128.055 601.604C119.449 597.975 110.752 594.315 102.197 590.402C85.0876 582.576 68.5202 573.728 54.3306 562.059C38.7757 549.267 25.4736 532.557 13.1118 514.739C6.92997 505.829 0.978426 496.635 -4.90263 487.51C-10.7852 478.383 -16.5968 469.326 -22.5064 460.679C-46.1724 426.05 -71.2666 398.219 -108.275 398.904C-147.789 399.635 -183.92 422.171 -211.333 454.917C-238.745 487.659 -257.391 530.554 -261.949 571.875C-265.879 607.499 -247.822 637.007 -223.982 665.814C-212.056 680.225 -198.738 694.399 -186.006 709.097C-173.29 723.777 -161.191 738.943 -151.788 755.259C-142.771 770.904 -136.084 788.538 -130.122 806.526C-124.151 824.538 -118.919 842.856 -112.785 859.988C-100.521 894.239 -84.7616 923.379 -52.7894 934.828Z" stroke="#00F0B5"/>
<path d="M-45.7527 878.445C-19.003 888.023 5.50234 880.643 28.3486 866.235C51.2146 851.814 72.3251 830.415 92.2842 812.059C112.7 793.282 137.035 773.756 154.537 751.482C172.021 729.232 182.609 704.328 175.607 674.829C168.813 646.205 146.539 631.524 120.114 619.302C113.511 616.249 106.658 613.352 99.7291 610.43C92.803 607.509 85.8012 604.562 78.9141 601.412C65.1408 595.113 51.7977 587.987 40.3675 578.587C27.8375 568.283 17.1254 554.825 7.17422 540.482C2.19776 533.309 -2.59297 525.908 -7.3262 518.564C-12.061 511.217 -16.7378 503.929 -21.4932 496.97C-40.5425 469.097 -60.7126 446.744 -90.441 447.294C-122.206 447.882 -151.261 466 -173.314 492.341C-195.364 518.68 -210.363 553.187 -214.03 586.424C-217.188 615.055 -202.678 638.777 -183.494 661.958C-173.895 673.557 -163.182 684.958 -152.93 696.793C-142.694 708.61 -132.952 720.822 -125.379 733.962C-118.116 746.563 -112.732 760.763 -107.933 775.243C-103.125 789.746 -98.9175 804.481 -93.9805 818.269C-84.1104 845.833 -71.4397 869.247 -45.7527 878.445Z" stroke="#00F0B5"/>
</g>
<g opacity="0.3">
<path d="M2126.04 608.385C2114.95 608.385 2103.86 604.225 2095.43 595.799L1778.44 278.804C1761.59 261.952 1761.59 234.54 1778.44 217.688C1786.65 209.475 1797.53 204.995 1809.05 204.995C1820.57 204.995 1831.45 209.475 1839.66 217.688L2156.66 534.683C2164.87 542.896 2169.35 553.668 2169.35 565.294C2169.35 576.814 2164.87 587.693 2156.66 595.906C2148.12 604.225 2137.14 608.385 2126.04 608.385ZM1809.05 207.128C1798.06 207.128 1787.72 211.395 1780.04 219.181C1764.04 235.18 1764.04 261.312 1780.04 277.311L2097.03 594.306C2113.03 610.305 2139.16 610.305 2155.16 594.306C2162.95 586.52 2167.22 576.174 2167.22 565.294C2167.22 554.308 2162.95 543.962 2155.16 536.283L1838.06 219.181C1830.38 211.395 1820.04 207.128 1809.05 207.128Z" fill="#00F0B5"/>
<path d="M2113.25 528.39C2102.15 528.39 2091.06 524.23 2082.63 515.804L1765.64 198.809C1748.79 181.957 1748.79 154.545 1765.64 137.693C1773.85 129.48 1784.73 125 1796.25 125C1807.77 125 1818.65 129.48 1826.86 137.693L2143.86 454.688C2152.07 462.901 2156.55 473.673 2156.55 485.299C2156.55 496.819 2152.07 507.698 2143.86 515.911C2135.32 524.23 2124.34 528.39 2113.25 528.39ZM1796.25 127.133C1785.26 127.133 1774.92 131.4 1767.24 139.186C1751.24 155.185 1751.24 181.317 1767.24 197.316L2084.23 514.311C2100.23 530.31 2126.37 530.31 2142.36 514.311C2150.15 506.525 2154.42 496.179 2154.42 485.299C2154.42 474.313 2150.15 463.967 2142.36 456.288L1825.26 139.186C1817.58 131.4 1807.24 127.133 1796.25 127.133Z" fill="#00F0B5"/>
</g>
</g>
<defs>
<radialGradient id="paint0_radial_2196_2254" cx="0" cy="0" r="1" gradientUnits="userSpaceOnUse" gradientTransform="translate(192 146) rotate(43.7519) scale(1298.56 2308.54)">
<stop stop-color="#1E212C"/>
<stop offset="0.563811" stop-color="#232441"/>
<stop offset="1" stop-color="#1E212C"/>
</radialGradient>
<linearGradient id="paint1_linear_2196_2254" x1="2162.5" y1="740.5" x2="1119.5" y2="57.2716" gradientUnits="userSpaceOnUse">
<stop offset="0.00619811" stop-color="white" stop-opacity="0"/>
<stop offset="0.479312" stop-color="white"/>
<stop offset="1" stop-color="white" stop-opacity="0"/>
</linearGradient>
<clipPath id="clip0_2196_2254">
<rect width="1920" height="1080" fill="white"/>
</clipPath>
</defs>
</svg>
