<svg width="148" height="189" viewBox="0 0 148 189" fill="none" xmlns="http://www.w3.org/2000/svg">
<g clip-path="url(#clip0_1473_4683)">
<g clip-path="url(#clip1_1473_4683)">
<circle cx="74" cy="74" r="71" stroke="#03CEA4" stroke-width="6"/>
<path d="M36.0945 82.416H40.5745V70.656C40.5745 70.08 40.5905 69.4773 40.6225 68.848L37.9825 71.04C37.8118 71.1787 37.6412 71.28 37.4705 71.344C37.2998 71.3973 37.1345 71.424 36.9745 71.424C36.6972 71.424 36.4465 71.3653 36.2225 71.248C36.0092 71.12 35.8492 70.9867 35.7425 70.848L34.1745 68.768L41.4385 62.672H45.5345V82.416H49.3745V86H36.0945V82.416ZM68.545 74.336C68.545 76.3733 68.3263 78.1387 67.889 79.632C67.4517 81.1253 66.8437 82.3627 66.065 83.344C65.297 84.3253 64.3797 85.056 63.313 85.536C62.257 86.016 61.1103 86.256 59.873 86.256C58.6357 86.256 57.489 86.016 56.433 85.536C55.3877 85.056 54.481 84.3253 53.713 83.344C52.945 82.3627 52.3423 81.1253 51.905 79.632C51.4783 78.1387 51.265 76.3733 51.265 74.336C51.265 72.2987 51.4783 70.5333 51.905 69.04C52.3423 67.5467 52.945 66.3093 53.713 65.328C54.481 64.3467 55.3877 63.6213 56.433 63.152C57.489 62.672 58.6357 62.432 59.873 62.432C61.1103 62.432 62.257 62.672 63.313 63.152C64.3797 63.6213 65.297 64.3467 66.065 65.328C66.8437 66.3093 67.4517 67.5467 67.889 69.04C68.3263 70.5333 68.545 72.2987 68.545 74.336ZM63.425 74.336C63.425 72.7253 63.3237 71.408 63.121 70.384C62.9183 69.3493 62.6463 68.5387 62.305 67.952C61.9743 67.3653 61.5957 66.9653 61.169 66.752C60.7423 66.528 60.3103 66.416 59.873 66.416C59.4357 66.416 59.0037 66.528 58.577 66.752C58.161 66.9653 57.7877 67.3653 57.457 67.952C57.137 68.5387 56.8757 69.3493 56.673 70.384C56.481 71.408 56.385 72.7253 56.385 74.336C56.385 75.9573 56.481 77.28 56.673 78.304C56.8757 79.328 57.137 80.1387 57.457 80.736C57.7877 81.3227 58.161 81.728 58.577 81.952C59.0037 82.1653 59.4357 82.272 59.873 82.272C60.3103 82.272 60.7423 82.1653 61.169 81.952C61.5957 81.728 61.9743 81.3227 62.305 80.736C62.6463 80.1387 62.9183 79.328 63.121 78.304C63.3237 77.28 63.425 75.9573 63.425 74.336ZM87.1075 74.336C87.1075 76.3733 86.8888 78.1387 86.4515 79.632C86.0142 81.1253 85.4062 82.3627 84.6275 83.344C83.8595 84.3253 82.9422 85.056 81.8755 85.536C80.8195 86.016 79.6728 86.256 78.4355 86.256C77.1982 86.256 76.0515 86.016 74.9955 85.536C73.9502 85.056 73.0435 84.3253 72.2755 83.344C71.5075 82.3627 70.9048 81.1253 70.4675 79.632C70.0408 78.1387 69.8275 76.3733 69.8275 74.336C69.8275 72.2987 70.0408 70.5333 70.4675 69.04C70.9048 67.5467 71.5075 66.3093 72.2755 65.328C73.0435 64.3467 73.9502 63.6213 74.9955 63.152C76.0515 62.672 77.1982 62.432 78.4355 62.432C79.6728 62.432 80.8195 62.672 81.8755 63.152C82.9422 63.6213 83.8595 64.3467 84.6275 65.328C85.4062 66.3093 86.0142 67.5467 86.4515 69.04C86.8888 70.5333 87.1075 72.2987 87.1075 74.336ZM81.9875 74.336C81.9875 72.7253 81.8862 71.408 81.6835 70.384C81.4808 69.3493 81.2088 68.5387 80.8675 67.952C80.5368 67.3653 80.1582 66.9653 79.7315 66.752C79.3048 66.528 78.8728 66.416 78.4355 66.416C77.9982 66.416 77.5662 66.528 77.1395 66.752C76.7235 66.9653 76.3502 67.3653 76.0195 67.952C75.6995 68.5387 75.4382 69.3493 75.2355 70.384C75.0435 71.408 74.9475 72.7253 74.9475 74.336C74.9475 75.9573 75.0435 77.28 75.2355 78.304C75.4382 79.328 75.6995 80.1387 76.0195 80.736C76.3502 81.3227 76.7235 81.728 77.1395 81.952C77.5662 82.1653 77.9982 82.272 78.4355 82.272C78.8728 82.272 79.3048 82.1653 79.7315 81.952C80.1582 81.728 80.5368 81.3227 80.8675 80.736C81.2088 80.1387 81.4808 79.328 81.6835 78.304C81.8862 77.28 81.9875 75.9573 81.9875 74.336ZM99.718 68.336C99.718 69.1893 99.5633 69.968 99.254 70.672C98.9447 71.376 98.534 71.984 98.022 72.496C97.51 72.9973 96.9127 73.3867 96.23 73.664C95.558 73.9413 94.854 74.08 94.118 74.08C93.3073 74.08 92.5607 73.9413 91.878 73.664C91.206 73.3867 90.6193 72.9973 90.118 72.496C89.6273 71.984 89.2433 71.376 88.966 70.672C88.6887 69.968 88.55 69.1893 88.55 68.336C88.55 67.4507 88.6887 66.6507 88.966 65.936C89.2433 65.2107 89.6273 64.592 90.118 64.08C90.6193 63.568 91.206 63.1733 91.878 62.896C92.5607 62.608 93.3073 62.464 94.118 62.464C94.9287 62.464 95.6753 62.608 96.358 62.896C97.0513 63.1733 97.6433 63.568 98.134 64.08C98.6353 64.592 99.0247 65.2107 99.302 65.936C99.5793 66.6507 99.718 67.4507 99.718 68.336ZM95.91 68.336C95.91 67.792 95.862 67.344 95.766 66.992C95.6807 66.6293 95.558 66.3413 95.398 66.128C95.238 65.9147 95.046 65.7653 94.822 65.68C94.6087 65.5947 94.374 65.552 94.118 65.552C93.862 65.552 93.6273 65.5947 93.414 65.68C93.2007 65.7653 93.0193 65.9147 92.87 66.128C92.7207 66.3413 92.6033 66.6293 92.518 66.992C92.4327 67.344 92.39 67.792 92.39 68.336C92.39 68.848 92.4327 69.2747 92.518 69.616C92.6033 69.9573 92.7207 70.2293 92.87 70.432C93.0193 70.6347 93.2007 70.7787 93.414 70.864C93.6273 70.9493 93.862 70.992 94.118 70.992C94.374 70.992 94.6087 70.9493 94.822 70.864C95.046 70.7787 95.238 70.6347 95.398 70.432C95.558 70.2293 95.6807 69.9573 95.766 69.616C95.862 69.2747 95.91 68.848 95.91 68.336ZM107.046 63.424C107.206 63.2427 107.403 63.0773 107.638 62.928C107.873 62.768 108.198 62.688 108.614 62.688H112.23L94.662 85.296C94.502 85.4987 94.2993 85.6693 94.054 85.808C93.8193 85.936 93.5313 86 93.19 86H89.478L107.046 63.424ZM113.126 80.528C113.126 81.3813 112.971 82.1653 112.662 82.88C112.353 83.584 111.942 84.192 111.43 84.704C110.918 85.2053 110.321 85.5947 109.638 85.872C108.966 86.1493 108.262 86.288 107.526 86.288C106.715 86.288 105.969 86.1493 105.286 85.872C104.614 85.5947 104.027 85.2053 103.526 84.704C103.035 84.192 102.651 83.584 102.374 82.88C102.097 82.1653 101.958 81.3813 101.958 80.528C101.958 79.6427 102.097 78.8427 102.374 78.128C102.651 77.4027 103.035 76.784 103.526 76.272C104.027 75.76 104.614 75.3653 105.286 75.088C105.969 74.8 106.715 74.656 107.526 74.656C108.337 74.656 109.083 74.8 109.766 75.088C110.459 75.3653 111.051 75.76 111.542 76.272C112.043 76.784 112.433 77.4027 112.71 78.128C112.987 78.8427 113.126 79.6427 113.126 80.528ZM109.318 80.528C109.318 79.9947 109.27 79.552 109.174 79.2C109.089 78.8373 108.966 78.5493 108.806 78.336C108.646 78.1227 108.454 77.9733 108.23 77.888C108.017 77.8027 107.782 77.76 107.526 77.76C107.27 77.76 107.035 77.8027 106.822 77.888C106.609 77.9733 106.427 78.1227 106.278 78.336C106.129 78.5493 106.011 78.8373 105.926 79.2C105.841 79.552 105.798 79.9947 105.798 80.528C105.798 81.04 105.841 81.4667 105.926 81.808C106.011 82.1493 106.129 82.4213 106.278 82.624C106.427 82.8267 106.609 82.9707 106.822 83.056C107.035 83.1413 107.27 83.184 107.526 83.184C107.782 83.184 108.017 83.1413 108.23 83.056C108.454 82.9707 108.646 82.8267 108.806 82.624C108.966 82.4213 109.089 82.1493 109.174 81.808C109.27 81.4667 109.318 81.04 109.318 80.528Z" fill="#1E212C"/>
</g>
<path d="M41.8852 184H40.5202V179.436H35.1162V184H33.7512V173.969H35.1162V178.442H40.5202V173.969H41.8852V184ZM49.3452 184H48.7922C48.6709 184 48.5729 183.981 48.4982 183.944C48.4236 183.907 48.3746 183.827 48.3512 183.706L48.2112 183.048C48.0246 183.216 47.8426 183.368 47.6652 183.503C47.4879 183.634 47.3012 183.746 47.1052 183.839C46.9092 183.928 46.6992 183.995 46.4752 184.042C46.2559 184.089 46.0109 184.112 45.7402 184.112C45.4649 184.112 45.2059 184.075 44.9632 184C44.7252 183.921 44.5176 183.804 44.3402 183.65C44.1629 183.496 44.0206 183.302 43.9132 183.069C43.8106 182.831 43.7592 182.551 43.7592 182.229C43.7592 181.949 43.8362 181.681 43.9902 181.424C44.1442 181.163 44.3916 180.932 44.7322 180.731C45.0776 180.53 45.5279 180.367 46.0832 180.241C46.6386 180.11 47.3176 180.036 48.1202 180.017V179.464C48.1202 178.913 48.0012 178.498 47.7632 178.218C47.5299 177.933 47.1822 177.791 46.7202 177.791C46.4169 177.791 46.1602 177.831 45.9502 177.91C45.7449 177.985 45.5652 178.071 45.4112 178.169C45.2619 178.262 45.1312 178.349 45.0192 178.428C44.9119 178.503 44.8046 178.54 44.6972 178.54C44.6132 178.54 44.5386 178.519 44.4732 178.477C44.4126 178.43 44.3636 178.374 44.3262 178.309L44.1022 177.91C44.4942 177.532 44.9166 177.25 45.3692 177.063C45.8219 176.876 46.3236 176.783 46.8742 176.783C47.2709 176.783 47.6232 176.848 47.9312 176.979C48.2392 177.11 48.4982 177.292 48.7082 177.525C48.9182 177.758 49.0769 178.041 49.1842 178.372C49.2916 178.703 49.3452 179.067 49.3452 179.464V184ZM46.1112 183.237C46.3306 183.237 46.5312 183.216 46.7132 183.174C46.8952 183.127 47.0656 183.064 47.2242 182.985C47.3876 182.901 47.5416 182.801 47.6862 182.684C47.8356 182.567 47.9802 182.434 48.1202 182.285V180.808C47.5462 180.827 47.0586 180.873 46.6572 180.948C46.2559 181.018 45.9292 181.111 45.6772 181.228C45.4252 181.345 45.2409 181.482 45.1242 181.641C45.0122 181.8 44.9562 181.977 44.9562 182.173C44.9562 182.36 44.9866 182.521 45.0472 182.656C45.1079 182.791 45.1896 182.903 45.2922 182.992C45.3949 183.076 45.5162 183.139 45.6562 183.181C45.7962 183.218 45.9479 183.237 46.1112 183.237ZM51.2329 186.401V176.909H51.9749C52.1523 176.909 52.2643 176.995 52.3109 177.168L52.4159 178.008C52.7193 177.639 53.0646 177.343 53.4519 177.119C53.8439 176.895 54.2943 176.783 54.8029 176.783C55.2089 176.783 55.5776 176.862 55.9089 177.021C56.2403 177.175 56.5226 177.406 56.7559 177.714C56.9893 178.017 57.1689 178.395 57.2949 178.848C57.4209 179.301 57.4839 179.821 57.4839 180.409C57.4839 180.932 57.4139 181.419 57.2739 181.872C57.1339 182.32 56.9333 182.71 56.6719 183.041C56.4106 183.368 56.0886 183.627 55.7059 183.818C55.3279 184.005 54.9009 184.098 54.4249 184.098C53.9863 184.098 53.6106 184.026 53.2979 183.881C52.9899 183.736 52.7169 183.531 52.4789 183.265V186.401H51.2329ZM54.3899 177.791C53.9839 177.791 53.6269 177.884 53.3189 178.071C53.0156 178.258 52.7356 178.521 52.4789 178.862V182.292C52.7076 182.6 52.9573 182.817 53.2279 182.943C53.5033 183.069 53.8089 183.132 54.1449 183.132C54.8029 183.132 55.3093 182.896 55.6639 182.425C56.0186 181.954 56.1959 181.282 56.1959 180.409C56.1959 179.947 56.1539 179.55 56.0699 179.219C55.9906 178.888 55.8739 178.617 55.7199 178.407C55.5659 178.192 55.3769 178.036 55.1529 177.938C54.9289 177.84 54.6746 177.791 54.3899 177.791ZM58.9575 186.401V176.909H59.6995C59.8769 176.909 59.9889 176.995 60.0355 177.168L60.1405 178.008C60.4439 177.639 60.7892 177.343 61.1765 177.119C61.5685 176.895 62.0189 176.783 62.5275 176.783C62.9335 176.783 63.3022 176.862 63.6335 177.021C63.9649 177.175 64.2472 177.406 64.4805 177.714C64.7139 178.017 64.8935 178.395 65.0195 178.848C65.1455 179.301 65.2085 179.821 65.2085 180.409C65.2085 180.932 65.1385 181.419 64.9985 181.872C64.8585 182.32 64.6579 182.71 64.3965 183.041C64.1352 183.368 63.8132 183.627 63.4305 183.818C63.0525 184.005 62.6255 184.098 62.1495 184.098C61.7109 184.098 61.3352 184.026 61.0225 183.881C60.7145 183.736 60.4415 183.531 60.2035 183.265V186.401H58.9575ZM62.1145 177.791C61.7085 177.791 61.3515 177.884 61.0435 178.071C60.7402 178.258 60.4602 178.521 60.2035 178.862V182.292C60.4322 182.6 60.6819 182.817 60.9525 182.943C61.2279 183.069 61.5335 183.132 61.8695 183.132C62.5275 183.132 63.0339 182.896 63.3885 182.425C63.7432 181.954 63.9205 181.282 63.9205 180.409C63.9205 179.947 63.8785 179.55 63.7945 179.219C63.7152 178.888 63.5985 178.617 63.4445 178.407C63.2905 178.192 63.1015 178.036 62.8775 177.938C62.6535 177.84 62.3992 177.791 62.1145 177.791ZM68.5834 186.093C68.5414 186.186 68.4878 186.261 68.4224 186.317C68.3618 186.373 68.2661 186.401 68.1354 186.401H67.2114L68.5064 183.587L65.5804 176.909H66.6584C66.7658 176.909 66.8498 176.937 66.9104 176.993C66.9711 177.044 67.0154 177.103 67.0434 177.168L68.9404 181.634C68.9824 181.737 69.0174 181.839 69.0454 181.942C69.0781 182.045 69.1061 182.15 69.1294 182.257C69.1621 182.15 69.1948 182.045 69.2274 181.942C69.2601 181.839 69.2974 181.734 69.3394 181.627L71.1804 177.168C71.2084 177.093 71.2551 177.033 71.3204 176.986C71.3904 176.935 71.4651 176.909 71.5444 176.909H72.5384L68.5834 186.093ZM81.2125 178.169C81.1752 178.22 81.1378 178.26 81.1005 178.288C81.0632 178.316 81.0095 178.33 80.9395 178.33C80.8695 178.33 80.7925 178.302 80.7085 178.246C80.6292 178.185 80.5265 178.12 80.4005 178.05C80.2745 177.98 80.1205 177.917 79.9385 177.861C79.7612 177.8 79.5418 177.77 79.2805 177.77C78.9352 177.77 78.6295 177.833 78.3635 177.959C78.0975 178.08 77.8735 178.258 77.6915 178.491C77.5142 178.724 77.3788 179.007 77.2855 179.338C77.1968 179.669 77.1525 180.04 77.1525 180.451C77.1525 180.88 77.2015 181.263 77.2995 181.599C77.3975 181.93 77.5352 182.21 77.7125 182.439C77.8898 182.663 78.1045 182.836 78.3565 182.957C78.6132 183.074 78.9002 183.132 79.2175 183.132C79.5208 183.132 79.7705 183.097 79.9665 183.027C80.1625 182.952 80.3258 182.871 80.4565 182.782C80.5872 182.693 80.6945 182.614 80.7785 182.544C80.8625 182.469 80.9465 182.432 81.0305 182.432C81.1378 182.432 81.2172 182.472 81.2685 182.551L81.6185 183.006C81.3105 183.384 80.9255 183.662 80.4635 183.839C80.0015 184.012 79.5138 184.098 79.0005 184.098C78.5572 184.098 78.1442 184.016 77.7615 183.853C77.3835 183.69 77.0545 183.454 76.7745 183.146C76.4945 182.833 76.2728 182.451 76.1095 181.998C75.9508 181.545 75.8715 181.03 75.8715 180.451C75.8715 179.924 75.9438 179.436 76.0885 178.988C76.2378 178.54 76.4525 178.155 76.7325 177.833C77.0172 177.506 77.3672 177.252 77.7825 177.07C78.1978 176.888 78.6738 176.797 79.2105 176.797C79.7052 176.797 80.1438 176.879 80.5265 177.042C80.9092 177.201 81.2475 177.427 81.5415 177.721L81.2125 178.169ZM84.2967 173.689V184H83.0507V173.689H84.2967ZM87.8787 176.909V184H86.6327V176.909H87.8787ZM88.1587 174.683C88.1587 174.804 88.133 174.919 88.0817 175.026C88.035 175.129 87.9697 175.222 87.8857 175.306C87.8064 175.385 87.713 175.448 87.6057 175.495C87.4984 175.542 87.384 175.565 87.2627 175.565C87.1414 175.565 87.027 175.542 86.9197 175.495C86.817 175.448 86.7237 175.385 86.6397 175.306C86.5604 175.222 86.4974 175.129 86.4507 175.026C86.404 174.919 86.3807 174.804 86.3807 174.683C86.3807 174.562 86.404 174.447 86.4507 174.34C86.4974 174.228 86.5604 174.132 86.6397 174.053C86.7237 173.969 86.817 173.904 86.9197 173.857C87.027 173.81 87.1414 173.787 87.2627 173.787C87.384 173.787 87.4984 173.81 87.6057 173.857C87.713 173.904 87.8064 173.969 87.8857 174.053C87.9697 174.132 88.035 174.228 88.0817 174.34C88.133 174.447 88.1587 174.562 88.1587 174.683ZM92.8817 176.797C93.3064 176.797 93.6984 176.869 94.0577 177.014C94.4171 177.154 94.7274 177.359 94.9887 177.63C95.2501 177.896 95.4531 178.227 95.5977 178.624C95.7471 179.016 95.8217 179.464 95.8217 179.968C95.8217 180.164 95.8007 180.295 95.7587 180.36C95.7167 180.425 95.6374 180.458 95.5207 180.458H90.8027C90.8121 180.906 90.8727 181.296 90.9847 181.627C91.0967 181.958 91.2507 182.236 91.4467 182.46C91.6427 182.679 91.8761 182.845 92.1467 182.957C92.4174 183.064 92.7207 183.118 93.0567 183.118C93.3694 183.118 93.6377 183.083 93.8617 183.013C94.0904 182.938 94.2864 182.859 94.4497 182.775C94.6131 182.691 94.7484 182.614 94.8557 182.544C94.9677 182.469 95.0634 182.432 95.1427 182.432C95.2454 182.432 95.3247 182.472 95.3807 182.551L95.7307 183.006C95.5767 183.193 95.3924 183.356 95.1777 183.496C94.9631 183.631 94.7321 183.743 94.4847 183.832C94.2421 183.921 93.9901 183.986 93.7287 184.028C93.4674 184.075 93.2084 184.098 92.9517 184.098C92.4617 184.098 92.0091 184.016 91.5937 183.853C91.1831 183.685 90.8261 183.442 90.5227 183.125C90.2241 182.803 89.9907 182.406 89.8227 181.935C89.6547 181.464 89.5707 180.922 89.5707 180.311C89.5707 179.816 89.6454 179.354 89.7947 178.925C89.9487 178.496 90.1681 178.125 90.4527 177.812C90.7374 177.495 91.0851 177.247 91.4957 177.07C91.9064 176.888 92.3684 176.797 92.8817 176.797ZM92.9097 177.714C92.3077 177.714 91.8341 177.889 91.4887 178.239C91.1434 178.584 90.9287 179.065 90.8447 179.681H94.7017C94.7017 179.392 94.6621 179.128 94.5827 178.89C94.5034 178.647 94.3867 178.44 94.2327 178.267C94.0787 178.09 93.8897 177.954 93.6657 177.861C93.4464 177.763 93.1944 177.714 92.9097 177.714ZM97.4165 184V176.909H98.1585C98.3359 176.909 98.4479 176.995 98.4945 177.168L98.5925 177.938C98.9005 177.597 99.2435 177.322 99.6215 177.112C100.004 176.902 100.445 176.797 100.945 176.797C101.332 176.797 101.673 176.862 101.967 176.993C102.265 177.119 102.513 177.301 102.709 177.539C102.909 177.772 103.061 178.055 103.164 178.386C103.266 178.717 103.318 179.084 103.318 179.485V184H102.072V179.485C102.072 178.948 101.948 178.533 101.701 178.239C101.458 177.94 101.085 177.791 100.581 177.791C100.212 177.791 99.8665 177.88 99.5445 178.057C99.2272 178.234 98.9332 178.475 98.6625 178.778V184H97.4165ZM107.345 184.112C106.785 184.112 106.353 183.956 106.05 183.643C105.751 183.33 105.602 182.88 105.602 182.292V177.952H104.748C104.673 177.952 104.61 177.931 104.559 177.889C104.507 177.842 104.482 177.772 104.482 177.679V177.182L105.644 177.035L105.931 174.844C105.94 174.774 105.97 174.718 106.022 174.676C106.073 174.629 106.138 174.606 106.218 174.606H106.848V177.049H108.878V177.952H106.848V182.208C106.848 182.507 106.92 182.728 107.065 182.873C107.209 183.018 107.396 183.09 107.625 183.09C107.755 183.09 107.867 183.074 107.961 183.041C108.059 183.004 108.143 182.964 108.213 182.922C108.283 182.88 108.341 182.843 108.388 182.81C108.439 182.773 108.483 182.754 108.521 182.754C108.586 182.754 108.644 182.794 108.696 182.873L109.06 183.468C108.845 183.669 108.586 183.827 108.283 183.944C107.979 184.056 107.667 184.112 107.345 184.112ZM114.478 178.078C114.422 178.181 114.336 178.232 114.219 178.232C114.149 178.232 114.07 178.206 113.981 178.155C113.893 178.104 113.783 178.048 113.652 177.987C113.526 177.922 113.375 177.863 113.197 177.812C113.02 177.756 112.81 177.728 112.567 177.728C112.357 177.728 112.168 177.756 112 177.812C111.832 177.863 111.688 177.936 111.566 178.029C111.45 178.122 111.359 178.232 111.293 178.358C111.233 178.479 111.202 178.612 111.202 178.757C111.202 178.939 111.254 179.091 111.356 179.212C111.464 179.333 111.604 179.438 111.776 179.527C111.949 179.616 112.145 179.695 112.364 179.765C112.584 179.83 112.808 179.903 113.036 179.982C113.27 180.057 113.496 180.141 113.715 180.234C113.935 180.327 114.131 180.444 114.303 180.584C114.476 180.724 114.614 180.897 114.716 181.102C114.824 181.303 114.877 181.545 114.877 181.83C114.877 182.157 114.819 182.46 114.702 182.74C114.586 183.015 114.413 183.256 114.184 183.461C113.956 183.662 113.676 183.82 113.344 183.937C113.013 184.054 112.63 184.112 112.196 184.112C111.702 184.112 111.254 184.033 110.852 183.874C110.451 183.711 110.11 183.503 109.83 183.251L110.124 182.775C110.162 182.714 110.206 182.668 110.257 182.635C110.309 182.602 110.376 182.586 110.46 182.586C110.544 182.586 110.633 182.619 110.726 182.684C110.82 182.749 110.932 182.822 111.062 182.901C111.198 182.98 111.359 183.053 111.545 183.118C111.737 183.183 111.975 183.216 112.259 183.216C112.502 183.216 112.714 183.186 112.896 183.125C113.078 183.06 113.23 182.973 113.351 182.866C113.473 182.759 113.561 182.635 113.617 182.495C113.678 182.355 113.708 182.206 113.708 182.047C113.708 181.851 113.655 181.69 113.547 181.564C113.445 181.433 113.307 181.324 113.134 181.235C112.962 181.142 112.763 181.062 112.539 180.997C112.32 180.927 112.094 180.855 111.86 180.78C111.632 180.705 111.405 180.621 111.181 180.528C110.962 180.43 110.766 180.309 110.593 180.164C110.421 180.019 110.281 179.842 110.173 179.632C110.071 179.417 110.019 179.158 110.019 178.855C110.019 178.584 110.075 178.325 110.187 178.078C110.299 177.826 110.463 177.607 110.677 177.42C110.892 177.229 111.156 177.077 111.468 176.965C111.781 176.853 112.138 176.797 112.539 176.797C113.006 176.797 113.424 176.872 113.792 177.021C114.166 177.166 114.488 177.366 114.758 177.623L114.478 178.078Z" fill="#424551"/>
</g>
<defs>
<clipPath id="clip0_1473_4683">
<rect width="148" height="189" fill="white"/>
</clipPath>
<clipPath id="clip1_1473_4683">
<rect width="148" height="148" fill="white"/>
</clipPath>
</defs>
</svg>
