<svg width="148" height="189" viewBox="0 0 148 189" fill="none" xmlns="http://www.w3.org/2000/svg">
<g clip-path="url(#clip0_1473_4677)">
<g clip-path="url(#clip1_1473_4677)">
<circle opacity="0.3" cx="74" cy="74" r="71" stroke="#F52F6E" stroke-width="6"/>
<path d="M74 142C111.555 142 142 111.555 142 74C142 36.4446 111.555 6 74 6V0C114.869 0 148 33.1309 148 74C148 114.869 114.869 148 74 148C33.1309 148 0 114.869 0 74H6C6 111.555 36.4446 142 74 142Z" fill="#F52F6E"/>
<path d="M70.0535 76.944H72.4535V79.728C72.4535 79.9733 72.3682 80.1867 72.1975 80.368C72.0375 80.5493 71.8028 80.64 71.4935 80.64H70.0535V86H65.7335V80.64H56.3575C56.0482 80.64 55.7655 80.544 55.5095 80.352C55.2642 80.16 55.1095 79.92 55.0455 79.632L54.5335 77.184L65.3175 62.688H70.0535V76.944ZM65.7335 70.864C65.7335 70.4907 65.7442 70.0907 65.7655 69.664C65.7975 69.2267 65.8402 68.7787 65.8935 68.32L59.7335 76.944H65.7335V70.864ZM88.968 64.736C88.968 65.0773 88.9147 65.3867 88.808 65.664C88.7013 65.9413 88.5307 66.1867 88.296 66.4C88.072 66.6027 87.7733 66.7627 87.4 66.88C87.0267 66.9867 86.5787 67.04 86.056 67.04H80.488L79.832 70.896C80.2693 70.8213 80.6907 70.768 81.096 70.736C81.5013 70.6933 81.896 70.672 82.28 70.672C83.5067 70.672 84.5893 70.8587 85.528 71.232C86.4667 71.6053 87.256 72.1173 87.896 72.768C88.536 73.408 89.016 74.1653 89.336 75.04C89.6667 75.904 89.832 76.832 89.832 77.824C89.832 79.072 89.608 80.2133 89.16 81.248C88.7227 82.272 88.1093 83.1573 87.32 83.904C86.5307 84.6507 85.5867 85.232 84.488 85.648C83.4 86.0533 82.2053 86.256 80.904 86.256C80.1467 86.256 79.4213 86.176 78.728 86.016C78.0453 85.856 77.4 85.6427 76.792 85.376C76.1947 85.0987 75.64 84.784 75.128 84.432C74.616 84.0693 74.152 83.6853 73.736 83.28L75.272 81.232C75.432 81.0187 75.6187 80.8587 75.832 80.752C76.0453 80.6347 76.2747 80.576 76.52 80.576C76.84 80.576 77.1387 80.6667 77.416 80.848C77.704 81.0187 78.0133 81.2107 78.344 81.424C78.6853 81.6267 79.08 81.8133 79.528 81.984C79.976 82.1547 80.5307 82.24 81.192 82.24C81.8533 82.24 82.4187 82.1333 82.888 81.92C83.3573 81.696 83.736 81.3973 84.024 81.024C84.3227 80.64 84.536 80.1973 84.664 79.696C84.8027 79.184 84.872 78.64 84.872 78.064C84.872 76.9333 84.552 76.0747 83.912 75.488C83.272 74.8907 82.3653 74.592 81.192 74.592C80.1467 74.592 79.1227 74.7893 78.12 75.184L75.048 74.352L77.032 62.688H88.968V64.736Z" fill="#1E212C"/>
</g>
<path d="M60.0374 184H58.9874C58.8661 184 58.7681 183.97 58.6934 183.909C58.6187 183.848 58.5627 183.771 58.5254 183.678L57.5874 181.256H53.0864L52.1484 183.678C52.1157 183.762 52.0597 183.837 51.9804 183.902C51.9011 183.967 51.8031 184 51.6864 184H50.6364L54.6474 173.969H56.0264L60.0374 184ZM53.4644 180.276H57.2094L55.6344 176.195C55.5317 175.943 55.4314 175.628 55.3334 175.25C55.2821 175.441 55.2307 175.619 55.1794 175.782C55.1327 175.941 55.0861 176.081 55.0394 176.202L53.4644 180.276ZM60.18 176.909H61.16C61.2627 176.909 61.3467 176.935 61.412 176.986C61.4774 177.037 61.5217 177.098 61.545 177.168L62.903 181.732C62.9404 181.9 62.9754 182.063 63.008 182.222C63.0407 182.376 63.0687 182.532 63.092 182.691C63.1294 182.532 63.1714 182.376 63.218 182.222C63.2647 182.063 63.3137 181.9 63.365 181.732L64.863 177.14C64.8864 177.07 64.926 177.012 64.982 176.965C65.0427 176.918 65.1174 176.895 65.206 176.895H65.745C65.8384 176.895 65.9154 176.918 65.976 176.965C66.0367 177.012 66.0787 177.07 66.102 177.14L67.565 181.732C67.6164 181.895 67.6607 182.056 67.698 182.215C67.74 182.374 67.7797 182.53 67.817 182.684C67.8404 182.53 67.8707 182.369 67.908 182.201C67.9454 182.033 67.985 181.877 68.027 181.732L69.413 177.168C69.4364 177.093 69.4807 177.033 69.546 176.986C69.6114 176.935 69.6884 176.909 69.777 176.909H70.715L68.419 184H67.432C67.3107 184 67.2267 183.921 67.18 183.762L65.612 178.953C65.5747 178.846 65.5444 178.738 65.521 178.631C65.4977 178.519 65.4744 178.409 65.451 178.302C65.4277 178.409 65.4044 178.519 65.381 178.631C65.3577 178.743 65.3274 178.853 65.29 178.96L63.701 183.762C63.6497 183.921 63.554 184 63.414 184H62.476L60.18 176.909ZM77.0308 184H76.4778C76.3564 184 76.2584 183.981 76.1838 183.944C76.1091 183.907 76.0601 183.827 76.0368 183.706L75.8968 183.048C75.7101 183.216 75.5281 183.368 75.3508 183.503C75.1734 183.634 74.9868 183.746 74.7908 183.839C74.5948 183.928 74.3848 183.995 74.1608 184.042C73.9414 184.089 73.6964 184.112 73.4258 184.112C73.1504 184.112 72.8914 184.075 72.6488 184C72.4108 183.921 72.2031 183.804 72.0258 183.65C71.8484 183.496 71.7061 183.302 71.5988 183.069C71.4961 182.831 71.4448 182.551 71.4448 182.229C71.4448 181.949 71.5218 181.681 71.6758 181.424C71.8298 181.163 72.0771 180.932 72.4178 180.731C72.7631 180.53 73.2134 180.367 73.7688 180.241C74.3241 180.11 75.0031 180.036 75.8058 180.017V179.464C75.8058 178.913 75.6868 178.498 75.4488 178.218C75.2154 177.933 74.8678 177.791 74.4058 177.791C74.1024 177.791 73.8458 177.831 73.6358 177.91C73.4304 177.985 73.2508 178.071 73.0968 178.169C72.9474 178.262 72.8168 178.349 72.7048 178.428C72.5974 178.503 72.4901 178.54 72.3828 178.54C72.2988 178.54 72.2241 178.519 72.1588 178.477C72.0981 178.43 72.0491 178.374 72.0118 178.309L71.7878 177.91C72.1798 177.532 72.6021 177.25 73.0548 177.063C73.5074 176.876 74.0091 176.783 74.5598 176.783C74.9564 176.783 75.3088 176.848 75.6168 176.979C75.9248 177.11 76.1838 177.292 76.3938 177.525C76.6038 177.758 76.7624 178.041 76.8698 178.372C76.9771 178.703 77.0308 179.067 77.0308 179.464V184ZM73.7968 183.237C74.0161 183.237 74.2168 183.216 74.3988 183.174C74.5808 183.127 74.7511 183.064 74.9098 182.985C75.0731 182.901 75.2271 182.801 75.3718 182.684C75.5211 182.567 75.6658 182.434 75.8058 182.285V180.808C75.2318 180.827 74.7441 180.873 74.3428 180.948C73.9414 181.018 73.6148 181.111 73.3628 181.228C73.1108 181.345 72.9264 181.482 72.8098 181.641C72.6978 181.8 72.6418 181.977 72.6418 182.173C72.6418 182.36 72.6721 182.521 72.7328 182.656C72.7934 182.791 72.8751 182.903 72.9778 182.992C73.0804 183.076 73.2018 183.139 73.3418 183.181C73.4818 183.218 73.6334 183.237 73.7968 183.237ZM78.9185 184V176.909H79.6325C79.7678 176.909 79.8612 176.935 79.9125 176.986C79.9638 177.037 79.9988 177.126 80.0175 177.252L80.1015 178.358C80.3442 177.863 80.6428 177.478 80.9975 177.203C81.3568 176.923 81.7768 176.783 82.2575 176.783C82.4535 176.783 82.6308 176.806 82.7895 176.853C82.9482 176.895 83.0952 176.956 83.2305 177.035L83.0695 177.966C83.0368 178.083 82.9645 178.141 82.8525 178.141C82.7872 178.141 82.6868 178.12 82.5515 178.078C82.4162 178.031 82.2272 178.008 81.9845 178.008C81.5505 178.008 81.1865 178.134 80.8925 178.386C80.6032 178.638 80.3605 179.004 80.1645 179.485V184H78.9185ZM89.556 184C89.3786 184 89.2666 183.914 89.22 183.741L89.108 182.88C88.8046 183.249 88.457 183.545 88.065 183.769C87.6776 183.988 87.232 184.098 86.728 184.098C86.322 184.098 85.9533 184.021 85.622 183.867C85.2906 183.708 85.0083 183.477 84.775 183.174C84.5416 182.871 84.362 182.493 84.236 182.04C84.11 181.587 84.047 181.067 84.047 180.479C84.047 179.956 84.117 179.471 84.257 179.023C84.397 178.57 84.5976 178.178 84.859 177.847C85.125 177.516 85.447 177.257 85.825 177.07C86.203 176.879 86.6323 176.783 87.113 176.783C87.547 176.783 87.918 176.858 88.226 177.007C88.534 177.152 88.8093 177.357 89.052 177.623V173.689H90.298V184H89.556ZM87.141 183.09C87.547 183.09 87.9016 182.997 88.205 182.81C88.513 182.623 88.7953 182.36 89.052 182.019V178.589C88.8233 178.281 88.5713 178.066 88.296 177.945C88.0253 177.819 87.7243 177.756 87.393 177.756C86.7303 177.756 86.2216 177.992 85.867 178.463C85.5123 178.934 85.335 179.606 85.335 180.479C85.335 180.941 85.3746 181.338 85.454 181.669C85.5333 181.996 85.65 182.266 85.804 182.481C85.958 182.691 86.147 182.845 86.371 182.943C86.595 183.041 86.8516 183.09 87.141 183.09ZM96.4453 178.078C96.3893 178.181 96.3029 178.232 96.1863 178.232C96.1163 178.232 96.0369 178.206 95.9483 178.155C95.8596 178.104 95.7499 178.048 95.6193 177.987C95.4933 177.922 95.3416 177.863 95.1643 177.812C94.9869 177.756 94.7769 177.728 94.5343 177.728C94.3243 177.728 94.1353 177.756 93.9673 177.812C93.7993 177.863 93.6546 177.936 93.5333 178.029C93.4166 178.122 93.3256 178.232 93.2603 178.358C93.1996 178.479 93.1693 178.612 93.1693 178.757C93.1693 178.939 93.2206 179.091 93.3233 179.212C93.4306 179.333 93.5706 179.438 93.7433 179.527C93.9159 179.616 94.1119 179.695 94.3313 179.765C94.5506 179.83 94.7746 179.903 95.0033 179.982C95.2366 180.057 95.4629 180.141 95.6823 180.234C95.9016 180.327 96.0976 180.444 96.2703 180.584C96.4429 180.724 96.5806 180.897 96.6833 181.102C96.7906 181.303 96.8443 181.545 96.8443 181.83C96.8443 182.157 96.7859 182.46 96.6693 182.74C96.5526 183.015 96.3799 183.256 96.1513 183.461C95.9226 183.662 95.6426 183.82 95.3113 183.937C94.9799 184.054 94.5973 184.112 94.1633 184.112C93.6686 184.112 93.2206 184.033 92.8193 183.874C92.4179 183.711 92.0773 183.503 91.7973 183.251L92.0913 182.775C92.1286 182.714 92.1729 182.668 92.2243 182.635C92.2756 182.602 92.3433 182.586 92.4273 182.586C92.5113 182.586 92.5999 182.619 92.6933 182.684C92.7866 182.749 92.8986 182.822 93.0293 182.901C93.1646 182.98 93.3256 183.053 93.5123 183.118C93.7036 183.183 93.9416 183.216 94.2263 183.216C94.4689 183.216 94.6813 183.186 94.8633 183.125C95.0453 183.06 95.1969 182.973 95.3183 182.866C95.4396 182.759 95.5283 182.635 95.5843 182.495C95.6449 182.355 95.6753 182.206 95.6753 182.047C95.6753 181.851 95.6216 181.69 95.5143 181.564C95.4116 181.433 95.2739 181.324 95.1013 181.235C94.9286 181.142 94.7303 181.062 94.5063 180.997C94.2869 180.927 94.0606 180.855 93.8273 180.78C93.5986 180.705 93.3723 180.621 93.1483 180.528C92.9289 180.43 92.7329 180.309 92.5603 180.164C92.3876 180.019 92.2476 179.842 92.1403 179.632C92.0376 179.417 91.9863 179.158 91.9863 178.855C91.9863 178.584 92.0423 178.325 92.1543 178.078C92.2663 177.826 92.4296 177.607 92.6443 177.42C92.8589 177.229 93.1226 177.077 93.4353 176.965C93.7479 176.853 94.1049 176.797 94.5063 176.797C94.9729 176.797 95.3906 176.872 95.7593 177.021C96.1326 177.166 96.4546 177.366 96.7253 177.623L96.4453 178.078Z" fill="#424551"/>
</g>
<defs>
<clipPath id="clip0_1473_4677">
<rect width="148" height="189" fill="white"/>
</clipPath>
<clipPath id="clip1_1473_4677">
<rect width="148" height="148" fill="white"/>
</clipPath>
</defs>
</svg>
