<svg width="148" height="189" viewBox="0 0 148 189" fill="none" xmlns="http://www.w3.org/2000/svg">
<g clip-path="url(#clip0_1473_4671)">
<g clip-path="url(#clip1_1473_4671)">
<circle opacity="0.3" cx="74" cy="74" r="71" stroke="#5A87FC" stroke-width="6"/>
<path d="M74 142C111.555 142 142 111.555 142 74C142 36.4446 111.555 6 74 6V0C114.869 0 148 33.1309 148 74C148 114.869 114.869 148 74 148C33.1309 148 0 114.869 0 74C0 62.1418 2.78922 50.935 7.74738 41L13.2072 43.5C8.59608 52.673 6 63.0333 6 74C6 111.555 36.4446 142 74 142Z" fill="#5A87FC"/>
<path d="M52.343 64.736C52.343 65.0773 52.2897 65.3867 52.183 65.664C52.0763 65.9413 51.9057 66.1867 51.671 66.4C51.447 66.6027 51.1483 66.7627 50.775 66.88C50.4017 66.9867 49.9537 67.04 49.431 67.04H43.863L43.207 70.896C43.6443 70.8213 44.0657 70.768 44.471 70.736C44.8763 70.6933 45.271 70.672 45.655 70.672C46.8817 70.672 47.9643 70.8587 48.903 71.232C49.8417 71.6053 50.631 72.1173 51.271 72.768C51.911 73.408 52.391 74.1653 52.711 75.04C53.0417 75.904 53.207 76.832 53.207 77.824C53.207 79.072 52.983 80.2133 52.535 81.248C52.0977 82.272 51.4843 83.1573 50.695 83.904C49.9057 84.6507 48.9617 85.232 47.863 85.648C46.775 86.0533 45.5803 86.256 44.279 86.256C43.5217 86.256 42.7963 86.176 42.103 86.016C41.4203 85.856 40.775 85.6427 40.167 85.376C39.5697 85.0987 39.015 84.784 38.503 84.432C37.991 84.0693 37.527 83.6853 37.111 83.28L38.647 81.232C38.807 81.0187 38.9937 80.8587 39.207 80.752C39.4203 80.6347 39.6497 80.576 39.895 80.576C40.215 80.576 40.5137 80.6667 40.791 80.848C41.079 81.0187 41.3883 81.2107 41.719 81.424C42.0603 81.6267 42.455 81.8133 42.903 81.984C43.351 82.1547 43.9057 82.24 44.567 82.24C45.2283 82.24 45.7937 82.1333 46.263 81.92C46.7323 81.696 47.111 81.3973 47.399 81.024C47.6977 80.64 47.911 80.1973 48.039 79.696C48.1777 79.184 48.247 78.64 48.247 78.064C48.247 76.9333 47.927 76.0747 47.287 75.488C46.647 74.8907 45.7403 74.592 44.567 74.592C43.5217 74.592 42.4977 74.7893 41.495 75.184L38.423 74.352L40.407 62.688H52.343V64.736ZM70.5535 76.944H72.9535V79.728C72.9535 79.9733 72.8682 80.1867 72.6975 80.368C72.5375 80.5493 72.3028 80.64 71.9935 80.64H70.5535V86H66.2335V80.64H56.8575C56.5482 80.64 56.2655 80.544 56.0095 80.352C55.7642 80.16 55.6095 79.92 55.5455 79.632L55.0335 77.184L65.8175 62.688H70.5535V76.944ZM66.2335 70.864C66.2335 70.4907 66.2442 70.0907 66.2655 69.664C66.2975 69.2267 66.3402 68.7787 66.3935 68.32L60.2335 76.944H66.2335V70.864ZM91.42 74.336C91.42 76.3733 91.2013 78.1387 90.764 79.632C90.3267 81.1253 89.7187 82.3627 88.94 83.344C88.172 84.3253 87.2547 85.056 86.188 85.536C85.132 86.016 83.9853 86.256 82.748 86.256C81.5107 86.256 80.364 86.016 79.308 85.536C78.2627 85.056 77.356 84.3253 76.588 83.344C75.82 82.3627 75.2173 81.1253 74.78 79.632C74.3533 78.1387 74.14 76.3733 74.14 74.336C74.14 72.2987 74.3533 70.5333 74.78 69.04C75.2173 67.5467 75.82 66.3093 76.588 65.328C77.356 64.3467 78.2627 63.6213 79.308 63.152C80.364 62.672 81.5107 62.432 82.748 62.432C83.9853 62.432 85.132 62.672 86.188 63.152C87.2547 63.6213 88.172 64.3467 88.94 65.328C89.7187 66.3093 90.3267 67.5467 90.764 69.04C91.2013 70.5333 91.42 72.2987 91.42 74.336ZM86.3 74.336C86.3 72.7253 86.1987 71.408 85.996 70.384C85.7933 69.3493 85.5213 68.5387 85.18 67.952C84.8493 67.3653 84.4707 66.9653 84.044 66.752C83.6173 66.528 83.1853 66.416 82.748 66.416C82.3107 66.416 81.8787 66.528 81.452 66.752C81.036 66.9653 80.6627 67.3653 80.332 67.952C80.012 68.5387 79.7507 69.3493 79.548 70.384C79.356 71.408 79.26 72.7253 79.26 74.336C79.26 75.9573 79.356 77.28 79.548 78.304C79.7507 79.328 80.012 80.1387 80.332 80.736C80.6627 81.3227 81.036 81.728 81.452 81.952C81.8787 82.1653 82.3107 82.272 82.748 82.272C83.1853 82.272 83.6173 82.1653 84.044 81.952C84.4707 81.728 84.8493 81.3227 85.18 80.736C85.5213 80.1387 85.7933 79.328 85.996 78.304C86.1987 77.28 86.3 75.9573 86.3 74.336ZM103.327 67.136V73.472H109.247V77.024H103.327V83.392H99.2945V77.024H93.4065V73.472H99.2945V67.136H103.327Z" fill="#1E212C"/>
</g>
<path d="M51.3545 180.248V184H50.0035V173.969H52.9645C53.5992 173.969 54.1498 174.044 54.6165 174.193C55.0878 174.338 55.4775 174.545 55.7855 174.816C56.0935 175.087 56.3222 175.413 56.4715 175.796C56.6255 176.179 56.7025 176.606 56.7025 177.077C56.7025 177.544 56.6208 177.971 56.4575 178.358C56.2942 178.745 56.0538 179.079 55.7365 179.359C55.4238 179.639 55.0342 179.858 54.5675 180.017C54.1008 180.171 53.5665 180.248 52.9645 180.248H51.3545ZM51.3545 179.17H52.9645C53.3518 179.17 53.6925 179.119 53.9865 179.016C54.2852 178.913 54.5348 178.771 54.7355 178.589C54.9362 178.402 55.0878 178.181 55.1905 177.924C55.2932 177.667 55.3445 177.385 55.3445 177.077C55.3445 176.438 55.1462 175.938 54.7495 175.579C54.3575 175.22 53.7625 175.04 52.9645 175.04H51.3545V179.17ZM58.2261 184V176.909H58.9401C59.0754 176.909 59.1688 176.935 59.2201 176.986C59.2714 177.037 59.3064 177.126 59.3251 177.252L59.4091 178.358C59.6518 177.863 59.9504 177.478 60.3051 177.203C60.6644 176.923 61.0844 176.783 61.5651 176.783C61.7611 176.783 61.9384 176.806 62.0971 176.853C62.2558 176.895 62.4028 176.956 62.5381 177.035L62.3771 177.966C62.3444 178.083 62.2721 178.141 62.1601 178.141C62.0948 178.141 61.9944 178.12 61.8591 178.078C61.7238 178.031 61.5348 178.008 61.2921 178.008C60.8581 178.008 60.4941 178.134 60.2001 178.386C59.9108 178.638 59.6681 179.004 59.4721 179.485V184H58.2261ZM66.7426 176.797C67.2606 176.797 67.7273 176.883 68.1426 177.056C68.5626 177.229 68.9173 177.474 69.2066 177.791C69.5006 178.108 69.7246 178.493 69.8786 178.946C70.0373 179.394 70.1166 179.896 70.1166 180.451C70.1166 181.011 70.0373 181.515 69.8786 181.963C69.7246 182.411 69.5006 182.794 69.2066 183.111C68.9173 183.428 68.5626 183.673 68.1426 183.846C67.7273 184.014 67.2606 184.098 66.7426 184.098C66.2246 184.098 65.7556 184.014 65.3356 183.846C64.9203 183.673 64.5656 183.428 64.2716 183.111C63.9776 182.794 63.7513 182.411 63.5926 181.963C63.4339 181.515 63.3546 181.011 63.3546 180.451C63.3546 179.896 63.4339 179.394 63.5926 178.946C63.7513 178.493 63.9776 178.108 64.2716 177.791C64.5656 177.474 64.9203 177.229 65.3356 177.056C65.7556 176.883 66.2246 176.797 66.7426 176.797ZM66.7426 183.125C67.4426 183.125 67.9653 182.892 68.3106 182.425C68.6559 181.954 68.8286 181.298 68.8286 180.458C68.8286 179.613 68.6559 178.955 68.3106 178.484C67.9653 178.013 67.4426 177.777 66.7426 177.777C66.3879 177.777 66.0799 177.838 65.8186 177.959C65.5573 178.08 65.3379 178.255 65.1606 178.484C64.9879 178.713 64.8573 178.995 64.7686 179.331C64.6846 179.662 64.6426 180.038 64.6426 180.458C64.6426 180.878 64.6846 181.254 64.7686 181.585C64.8573 181.916 64.9879 182.196 65.1606 182.425C65.3379 182.649 65.5573 182.822 65.8186 182.943C66.0799 183.064 66.3879 183.125 66.7426 183.125ZM73.0379 176.909V184.525C73.0379 184.81 73.0005 185.073 72.9259 185.316C72.8512 185.563 72.7322 185.778 72.5689 185.96C72.4102 186.142 72.2025 186.284 71.9459 186.387C71.6939 186.494 71.3905 186.548 71.0359 186.548C70.8819 186.548 70.7419 186.536 70.6159 186.513C70.4899 186.49 70.3639 186.455 70.2379 186.408L70.2939 185.736C70.3032 185.675 70.3242 185.636 70.3569 185.617C70.3895 185.603 70.4409 185.596 70.5109 185.596C70.5482 185.596 70.5879 185.596 70.6299 185.596C70.6719 185.601 70.7232 185.603 70.7839 185.603C71.1479 185.603 71.4069 185.517 71.5609 185.344C71.7149 185.176 71.7919 184.903 71.7919 184.525V176.909H73.0379ZM73.3179 174.683C73.3179 174.804 73.2922 174.919 73.2409 175.026C73.1942 175.129 73.1289 175.222 73.0449 175.306C72.9655 175.385 72.8722 175.448 72.7649 175.495C72.6575 175.542 72.5432 175.565 72.4219 175.565C72.3005 175.565 72.1862 175.542 72.0789 175.495C71.9762 175.448 71.8829 175.385 71.7989 175.306C71.7195 175.222 71.6565 175.129 71.6099 175.026C71.5632 174.919 71.5399 174.804 71.5399 174.683C71.5399 174.562 71.5632 174.447 71.6099 174.34C71.6565 174.228 71.7195 174.132 71.7989 174.053C71.8829 173.969 71.9762 173.904 72.0789 173.857C72.1862 173.81 72.3005 173.787 72.4219 173.787C72.5432 173.787 72.6575 173.81 72.7649 173.857C72.8722 173.904 72.9655 173.969 73.0449 174.053C73.1289 174.132 73.1942 174.228 73.2409 174.34C73.2922 174.447 73.3179 174.562 73.3179 174.683ZM78.0136 176.797C78.4382 176.797 78.8302 176.869 79.1896 177.014C79.5489 177.154 79.8592 177.359 80.1206 177.63C80.3819 177.896 80.5849 178.227 80.7296 178.624C80.8789 179.016 80.9536 179.464 80.9536 179.968C80.9536 180.164 80.9326 180.295 80.8906 180.36C80.8486 180.425 80.7692 180.458 80.6526 180.458H75.9346C75.9439 180.906 76.0046 181.296 76.1166 181.627C76.2286 181.958 76.3826 182.236 76.5786 182.46C76.7746 182.679 77.0079 182.845 77.2786 182.957C77.5492 183.064 77.8526 183.118 78.1886 183.118C78.5012 183.118 78.7696 183.083 78.9936 183.013C79.2222 182.938 79.4182 182.859 79.5816 182.775C79.7449 182.691 79.8802 182.614 79.9876 182.544C80.0996 182.469 80.1952 182.432 80.2746 182.432C80.3772 182.432 80.4566 182.472 80.5126 182.551L80.8626 183.006C80.7086 183.193 80.5242 183.356 80.3096 183.496C80.0949 183.631 79.8639 183.743 79.6166 183.832C79.3739 183.921 79.1219 183.986 78.8606 184.028C78.5992 184.075 78.3402 184.098 78.0836 184.098C77.5936 184.098 77.1409 184.016 76.7256 183.853C76.3149 183.685 75.9579 183.442 75.6546 183.125C75.3559 182.803 75.1226 182.406 74.9546 181.935C74.7866 181.464 74.7026 180.922 74.7026 180.311C74.7026 179.816 74.7772 179.354 74.9266 178.925C75.0806 178.496 75.2999 178.125 75.5846 177.812C75.8692 177.495 76.2169 177.247 76.6276 177.07C77.0382 176.888 77.5002 176.797 78.0136 176.797ZM78.0416 177.714C77.4396 177.714 76.9659 177.889 76.6206 178.239C76.2752 178.584 76.0606 179.065 75.9766 179.681H79.8336C79.8336 179.392 79.7939 179.128 79.7146 178.89C79.6352 178.647 79.5186 178.44 79.3646 178.267C79.2106 178.09 79.0216 177.954 78.7976 177.861C78.5782 177.763 78.3262 177.714 78.0416 177.714ZM87.3854 178.169C87.348 178.22 87.3107 178.26 87.2734 178.288C87.236 178.316 87.1824 178.33 87.1124 178.33C87.0424 178.33 86.9654 178.302 86.8814 178.246C86.802 178.185 86.6994 178.12 86.5734 178.05C86.4474 177.98 86.2934 177.917 86.1114 177.861C85.934 177.8 85.7147 177.77 85.4534 177.77C85.108 177.77 84.8024 177.833 84.5364 177.959C84.2704 178.08 84.0464 178.258 83.8644 178.491C83.687 178.724 83.5517 179.007 83.4584 179.338C83.3697 179.669 83.3254 180.04 83.3254 180.451C83.3254 180.88 83.3744 181.263 83.4724 181.599C83.5704 181.93 83.708 182.21 83.8854 182.439C84.0627 182.663 84.2774 182.836 84.5294 182.957C84.786 183.074 85.073 183.132 85.3904 183.132C85.6937 183.132 85.9434 183.097 86.1394 183.027C86.3354 182.952 86.4987 182.871 86.6294 182.782C86.76 182.693 86.8674 182.614 86.9514 182.544C87.0354 182.469 87.1194 182.432 87.2034 182.432C87.3107 182.432 87.39 182.472 87.4414 182.551L87.7914 183.006C87.4834 183.384 87.0984 183.662 86.6364 183.839C86.1744 184.012 85.6867 184.098 85.1734 184.098C84.73 184.098 84.317 184.016 83.9344 183.853C83.5564 183.69 83.2274 183.454 82.9474 183.146C82.6674 182.833 82.4457 182.451 82.2824 181.998C82.1237 181.545 82.0444 181.03 82.0444 180.451C82.0444 179.924 82.1167 179.436 82.2614 178.988C82.4107 178.54 82.6254 178.155 82.9054 177.833C83.19 177.506 83.54 177.252 83.9554 177.07C84.3707 176.888 84.8467 176.797 85.3834 176.797C85.878 176.797 86.3167 176.879 86.6994 177.042C87.082 177.201 87.4204 177.427 87.7144 177.721L87.3854 178.169ZM91.2325 184.112C90.6725 184.112 90.2409 183.956 89.9375 183.643C89.6389 183.33 89.4895 182.88 89.4895 182.292V177.952H88.6355C88.5609 177.952 88.4979 177.931 88.4465 177.889C88.3952 177.842 88.3695 177.772 88.3695 177.679V177.182L89.5315 177.035L89.8185 174.844C89.8279 174.774 89.8582 174.718 89.9095 174.676C89.9609 174.629 90.0262 174.606 90.1055 174.606H90.7355V177.049H92.7655V177.952H90.7355V182.208C90.7355 182.507 90.8079 182.728 90.9525 182.873C91.0972 183.018 91.2839 183.09 91.5125 183.09C91.6432 183.09 91.7552 183.074 91.8485 183.041C91.9465 183.004 92.0305 182.964 92.1005 182.922C92.1705 182.88 92.2289 182.843 92.2755 182.81C92.3269 182.773 92.3712 182.754 92.4085 182.754C92.4739 182.754 92.5322 182.794 92.5835 182.873L92.9475 183.468C92.7329 183.669 92.4739 183.827 92.1705 183.944C91.8672 184.056 91.5545 184.112 91.2325 184.112ZM98.3662 178.078C98.3102 178.181 98.2238 178.232 98.1072 178.232C98.0372 178.232 97.9578 178.206 97.8692 178.155C97.7805 178.104 97.6708 178.048 97.5402 177.987C97.4142 177.922 97.2625 177.863 97.0852 177.812C96.9078 177.756 96.6978 177.728 96.4552 177.728C96.2452 177.728 96.0562 177.756 95.8882 177.812C95.7202 177.863 95.5755 177.936 95.4542 178.029C95.3375 178.122 95.2465 178.232 95.1812 178.358C95.1205 178.479 95.0902 178.612 95.0902 178.757C95.0902 178.939 95.1415 179.091 95.2442 179.212C95.3515 179.333 95.4915 179.438 95.6642 179.527C95.8368 179.616 96.0328 179.695 96.2522 179.765C96.4715 179.83 96.6955 179.903 96.9242 179.982C97.1575 180.057 97.3838 180.141 97.6032 180.234C97.8225 180.327 98.0185 180.444 98.1912 180.584C98.3638 180.724 98.5015 180.897 98.6042 181.102C98.7115 181.303 98.7652 181.545 98.7652 181.83C98.7652 182.157 98.7068 182.46 98.5902 182.74C98.4735 183.015 98.3008 183.256 98.0722 183.461C97.8435 183.662 97.5635 183.82 97.2322 183.937C96.9008 184.054 96.5182 184.112 96.0842 184.112C95.5895 184.112 95.1415 184.033 94.7402 183.874C94.3388 183.711 93.9982 183.503 93.7182 183.251L94.0122 182.775C94.0495 182.714 94.0938 182.668 94.1452 182.635C94.1965 182.602 94.2642 182.586 94.3482 182.586C94.4322 182.586 94.5208 182.619 94.6142 182.684C94.7075 182.749 94.8195 182.822 94.9502 182.901C95.0855 182.98 95.2465 183.053 95.4332 183.118C95.6245 183.183 95.8625 183.216 96.1472 183.216C96.3898 183.216 96.6022 183.186 96.7842 183.125C96.9662 183.06 97.1178 182.973 97.2392 182.866C97.3605 182.759 97.4492 182.635 97.5052 182.495C97.5658 182.355 97.5962 182.206 97.5962 182.047C97.5962 181.851 97.5425 181.69 97.4352 181.564C97.3325 181.433 97.1948 181.324 97.0222 181.235C96.8495 181.142 96.6512 181.062 96.4272 180.997C96.2078 180.927 95.9815 180.855 95.7482 180.78C95.5195 180.705 95.2932 180.621 95.0692 180.528C94.8498 180.43 94.6538 180.309 94.4812 180.164C94.3085 180.019 94.1685 179.842 94.0612 179.632C93.9585 179.417 93.9072 179.158 93.9072 178.855C93.9072 178.584 93.9632 178.325 94.0752 178.078C94.1872 177.826 94.3505 177.607 94.5652 177.42C94.7798 177.229 95.0435 177.077 95.3562 176.965C95.6688 176.853 96.0258 176.797 96.4272 176.797C96.8938 176.797 97.3115 176.872 97.6802 177.021C98.0535 177.166 98.3755 177.366 98.6462 177.623L98.3662 178.078Z" fill="#424551"/>
</g>
<defs>
<clipPath id="clip0_1473_4671">
<rect width="148" height="189" fill="white"/>
</clipPath>
<clipPath id="clip1_1473_4671">
<rect width="148" height="148" fill="white"/>
</clipPath>
</defs>
</svg>
