<svg width="148" height="189" viewBox="0 0 148 189" fill="none" xmlns="http://www.w3.org/2000/svg">
<g clip-path="url(#clip0_1473_4665)">
<g clip-path="url(#clip1_1473_4665)">
<circle opacity="0.3" cx="74" cy="74" r="71" stroke="#F89828" stroke-width="6"/>
<path d="M74 142C111.555 142 142 111.555 142 74C142 36.4446 111.555 6 74 6V0C114.869 0 148 33.1309 148 74C148 114.869 114.869 148 74 148C33.1309 148 0 114.869 0 74C0 51.3485 10.1774 31.0741 26.209 17.5L30 22.1523C15.3167 34.6254 6 53.2247 6 74C6 111.555 36.4446 142 74 142Z" fill="#F89828"/>
<path d="M58.4695 82.416H62.9495V70.656C62.9495 70.08 62.9655 69.4773 62.9975 68.848L60.3575 71.04C60.1868 71.1787 60.0162 71.28 59.8455 71.344C59.6748 71.3973 59.5095 71.424 59.3495 71.424C59.0722 71.424 58.8215 71.3653 58.5975 71.248C58.3842 71.12 58.2242 70.9867 58.1175 70.848L56.5495 68.768L63.8135 62.672H67.9095V82.416H71.7495V86H58.4695V82.416ZM90.92 74.336C90.92 76.3733 90.7013 78.1387 90.264 79.632C89.8267 81.1253 89.2187 82.3627 88.44 83.344C87.672 84.3253 86.7547 85.056 85.688 85.536C84.632 86.016 83.4853 86.256 82.248 86.256C81.0107 86.256 79.864 86.016 78.808 85.536C77.7627 85.056 76.856 84.3253 76.088 83.344C75.32 82.3627 74.7173 81.1253 74.28 79.632C73.8533 78.1387 73.64 76.3733 73.64 74.336C73.64 72.2987 73.8533 70.5333 74.28 69.04C74.7173 67.5467 75.32 66.3093 76.088 65.328C76.856 64.3467 77.7627 63.6213 78.808 63.152C79.864 62.672 81.0107 62.432 82.248 62.432C83.4853 62.432 84.632 62.672 85.688 63.152C86.7547 63.6213 87.672 64.3467 88.44 65.328C89.2187 66.3093 89.8267 67.5467 90.264 69.04C90.7013 70.5333 90.92 72.2987 90.92 74.336ZM85.8 74.336C85.8 72.7253 85.6987 71.408 85.496 70.384C85.2933 69.3493 85.0213 68.5387 84.68 67.952C84.3493 67.3653 83.9707 66.9653 83.544 66.752C83.1173 66.528 82.6853 66.416 82.248 66.416C81.8107 66.416 81.3787 66.528 80.952 66.752C80.536 66.9653 80.1627 67.3653 79.832 67.952C79.512 68.5387 79.2507 69.3493 79.048 70.384C78.856 71.408 78.76 72.7253 78.76 74.336C78.76 75.9573 78.856 77.28 79.048 78.304C79.2507 79.328 79.512 80.1387 79.832 80.736C80.1627 81.3227 80.536 81.728 80.952 81.952C81.3787 82.1653 81.8107 82.272 82.248 82.272C82.6853 82.272 83.1173 82.1653 83.544 81.952C83.9707 81.728 84.3493 81.3227 84.68 80.736C85.0213 80.1387 85.2933 79.328 85.496 78.304C85.6987 77.28 85.8 75.9573 85.8 74.336Z" fill="#1E212C"/>
</g>
<path d="M19.5752 180.01V184H18.2242V180.01L14.5492 173.969H15.7392C15.8605 173.969 15.9562 173.999 16.0262 174.06C16.0962 174.121 16.1568 174.195 16.2082 174.284L18.5042 178.183C18.5975 178.346 18.6745 178.5 18.7352 178.645C18.8005 178.79 18.8588 178.932 18.9102 179.072C18.9615 178.927 19.0175 178.783 19.0782 178.638C19.1388 178.493 19.2158 178.342 19.3092 178.183L21.5982 174.284C21.6402 174.209 21.6962 174.139 21.7662 174.074C21.8408 174.004 21.9365 173.969 22.0532 173.969H23.2572L19.5752 180.01ZM26.0058 176.797C26.4304 176.797 26.8224 176.869 27.1818 177.014C27.5411 177.154 27.8514 177.359 28.1128 177.63C28.3741 177.896 28.5771 178.227 28.7218 178.624C28.8711 179.016 28.9458 179.464 28.9458 179.968C28.9458 180.164 28.9248 180.295 28.8828 180.36C28.8408 180.425 28.7614 180.458 28.6448 180.458H23.9268C23.9361 180.906 23.9968 181.296 24.1088 181.627C24.2208 181.958 24.3748 182.236 24.5708 182.46C24.7668 182.679 25.0001 182.845 25.2708 182.957C25.5414 183.064 25.8448 183.118 26.1808 183.118C26.4934 183.118 26.7618 183.083 26.9858 183.013C27.2144 182.938 27.4104 182.859 27.5738 182.775C27.7371 182.691 27.8724 182.614 27.9798 182.544C28.0918 182.469 28.1874 182.432 28.2668 182.432C28.3694 182.432 28.4488 182.472 28.5048 182.551L28.8548 183.006C28.7008 183.193 28.5164 183.356 28.3018 183.496C28.0871 183.631 27.8561 183.743 27.6088 183.832C27.3661 183.921 27.1141 183.986 26.8528 184.028C26.5914 184.075 26.3324 184.098 26.0758 184.098C25.5858 184.098 25.1331 184.016 24.7178 183.853C24.3071 183.685 23.9501 183.442 23.6468 183.125C23.3481 182.803 23.1148 182.406 22.9468 181.935C22.7788 181.464 22.6948 180.922 22.6948 180.311C22.6948 179.816 22.7694 179.354 22.9188 178.925C23.0728 178.496 23.2921 178.125 23.5768 177.812C23.8614 177.495 24.2091 177.247 24.6198 177.07C25.0304 176.888 25.4924 176.797 26.0058 176.797ZM26.0338 177.714C25.4318 177.714 24.9581 177.889 24.6128 178.239C24.2674 178.584 24.0528 179.065 23.9688 179.681H27.8258C27.8258 179.392 27.7861 179.128 27.7068 178.89C27.6274 178.647 27.5108 178.44 27.3568 178.267C27.2028 178.09 27.0138 177.954 26.7898 177.861C26.5704 177.763 26.3184 177.714 26.0338 177.714ZM35.7486 184H35.1956C35.0742 184 34.9762 183.981 34.9016 183.944C34.8269 183.907 34.7779 183.827 34.7546 183.706L34.6146 183.048C34.4279 183.216 34.2459 183.368 34.0686 183.503C33.8912 183.634 33.7046 183.746 33.5086 183.839C33.3126 183.928 33.1026 183.995 32.8786 184.042C32.6592 184.089 32.4142 184.112 32.1436 184.112C31.8682 184.112 31.6092 184.075 31.3666 184C31.1286 183.921 30.9209 183.804 30.7436 183.65C30.5662 183.496 30.4239 183.302 30.3166 183.069C30.2139 182.831 30.1626 182.551 30.1626 182.229C30.1626 181.949 30.2396 181.681 30.3936 181.424C30.5476 181.163 30.7949 180.932 31.1356 180.731C31.4809 180.53 31.9312 180.367 32.4866 180.241C33.0419 180.11 33.7209 180.036 34.5236 180.017V179.464C34.5236 178.913 34.4046 178.498 34.1666 178.218C33.9332 177.933 33.5856 177.791 33.1236 177.791C32.8202 177.791 32.5636 177.831 32.3536 177.91C32.1482 177.985 31.9686 178.071 31.8146 178.169C31.6652 178.262 31.5346 178.349 31.4226 178.428C31.3152 178.503 31.2079 178.54 31.1006 178.54C31.0166 178.54 30.9419 178.519 30.8766 178.477C30.8159 178.43 30.7669 178.374 30.7296 178.309L30.5056 177.91C30.8976 177.532 31.3199 177.25 31.7726 177.063C32.2252 176.876 32.7269 176.783 33.2776 176.783C33.6742 176.783 34.0266 176.848 34.3346 176.979C34.6426 177.11 34.9016 177.292 35.1116 177.525C35.3216 177.758 35.4802 178.041 35.5876 178.372C35.6949 178.703 35.7486 179.067 35.7486 179.464V184ZM32.5146 183.237C32.7339 183.237 32.9346 183.216 33.1166 183.174C33.2986 183.127 33.4689 183.064 33.6276 182.985C33.7909 182.901 33.9449 182.801 34.0896 182.684C34.2389 182.567 34.3836 182.434 34.5236 182.285V180.808C33.9496 180.827 33.4619 180.873 33.0606 180.948C32.6592 181.018 32.3326 181.111 32.0806 181.228C31.8286 181.345 31.6442 181.482 31.5276 181.641C31.4156 181.8 31.3596 181.977 31.3596 182.173C31.3596 182.36 31.3899 182.521 31.4506 182.656C31.5112 182.791 31.5929 182.903 31.6956 182.992C31.7982 183.076 31.9196 183.139 32.0596 183.181C32.1996 183.218 32.3512 183.237 32.5146 183.237ZM37.6363 184V176.909H38.3503C38.4856 176.909 38.5789 176.935 38.6303 176.986C38.6816 177.037 38.7166 177.126 38.7353 177.252L38.8193 178.358C39.0619 177.863 39.3606 177.478 39.7153 177.203C40.0746 176.923 40.4946 176.783 40.9753 176.783C41.1713 176.783 41.3486 176.806 41.5073 176.853C41.6659 176.895 41.8129 176.956 41.9483 177.035L41.7873 177.966C41.7546 178.083 41.6823 178.141 41.5703 178.141C41.5049 178.141 41.4046 178.12 41.2693 178.078C41.1339 178.031 40.9449 178.008 40.7023 178.008C40.2683 178.008 39.9043 178.134 39.6103 178.386C39.3209 178.638 39.0783 179.004 38.8823 179.485V184H37.6363ZM47.3427 178.078C47.2867 178.181 47.2004 178.232 47.0837 178.232C47.0137 178.232 46.9344 178.206 46.8457 178.155C46.7571 178.104 46.6474 178.048 46.5167 177.987C46.3907 177.922 46.2391 177.863 46.0617 177.812C45.8844 177.756 45.6744 177.728 45.4317 177.728C45.2217 177.728 45.0327 177.756 44.8647 177.812C44.6967 177.863 44.5521 177.936 44.4307 178.029C44.3141 178.122 44.2231 178.232 44.1577 178.358C44.0971 178.479 44.0667 178.612 44.0667 178.757C44.0667 178.939 44.1181 179.091 44.2207 179.212C44.3281 179.333 44.4681 179.438 44.6407 179.527C44.8134 179.616 45.0094 179.695 45.2287 179.765C45.4481 179.83 45.6721 179.903 45.9007 179.982C46.1341 180.057 46.3604 180.141 46.5797 180.234C46.7991 180.327 46.9951 180.444 47.1677 180.584C47.3404 180.724 47.4781 180.897 47.5807 181.102C47.6881 181.303 47.7417 181.545 47.7417 181.83C47.7417 182.157 47.6834 182.46 47.5667 182.74C47.4501 183.015 47.2774 183.256 47.0487 183.461C46.8201 183.662 46.5401 183.82 46.2087 183.937C45.8774 184.054 45.4947 184.112 45.0607 184.112C44.5661 184.112 44.1181 184.033 43.7167 183.874C43.3154 183.711 42.9747 183.503 42.6947 183.251L42.9887 182.775C43.0261 182.714 43.0704 182.668 43.1217 182.635C43.1731 182.602 43.2407 182.586 43.3247 182.586C43.4087 182.586 43.4974 182.619 43.5907 182.684C43.6841 182.749 43.7961 182.822 43.9267 182.901C44.0621 182.98 44.2231 183.053 44.4097 183.118C44.6011 183.183 44.8391 183.216 45.1237 183.216C45.3664 183.216 45.5787 183.186 45.7607 183.125C45.9427 183.06 46.0944 182.973 46.2157 182.866C46.3371 182.759 46.4257 182.635 46.4817 182.495C46.5424 182.355 46.5727 182.206 46.5727 182.047C46.5727 181.851 46.5191 181.69 46.4117 181.564C46.3091 181.433 46.1714 181.324 45.9987 181.235C45.8261 181.142 45.6277 181.062 45.4037 180.997C45.1844 180.927 44.9581 180.855 44.7247 180.78C44.4961 180.705 44.2697 180.621 44.0457 180.528C43.8264 180.43 43.6304 180.309 43.4577 180.164C43.2851 180.019 43.1451 179.842 43.0377 179.632C42.9351 179.417 42.8837 179.158 42.8837 178.855C42.8837 178.584 42.9397 178.325 43.0517 178.078C43.1637 177.826 43.3271 177.607 43.5417 177.42C43.7564 177.229 44.0201 177.077 44.3327 176.965C44.6454 176.853 45.0024 176.797 45.4037 176.797C45.8704 176.797 46.2881 176.872 46.6567 177.021C47.0301 177.166 47.3521 177.366 47.6227 177.623L47.3427 178.078ZM54.9301 176.797C55.4481 176.797 55.9148 176.883 56.3301 177.056C56.7501 177.229 57.1048 177.474 57.3941 177.791C57.6881 178.108 57.9121 178.493 58.0661 178.946C58.2248 179.394 58.3041 179.896 58.3041 180.451C58.3041 181.011 58.2248 181.515 58.0661 181.963C57.9121 182.411 57.6881 182.794 57.3941 183.111C57.1048 183.428 56.7501 183.673 56.3301 183.846C55.9148 184.014 55.4481 184.098 54.9301 184.098C54.4121 184.098 53.9431 184.014 53.5231 183.846C53.1078 183.673 52.7531 183.428 52.4591 183.111C52.1651 182.794 51.9388 182.411 51.7801 181.963C51.6214 181.515 51.5421 181.011 51.5421 180.451C51.5421 179.896 51.6214 179.394 51.7801 178.946C51.9388 178.493 52.1651 178.108 52.4591 177.791C52.7531 177.474 53.1078 177.229 53.5231 177.056C53.9431 176.883 54.4121 176.797 54.9301 176.797ZM54.9301 183.125C55.6301 183.125 56.1528 182.892 56.4981 182.425C56.8434 181.954 57.0161 181.298 57.0161 180.458C57.0161 179.613 56.8434 178.955 56.4981 178.484C56.1528 178.013 55.6301 177.777 54.9301 177.777C54.5754 177.777 54.2674 177.838 54.0061 177.959C53.7448 178.08 53.5254 178.255 53.3481 178.484C53.1754 178.713 53.0448 178.995 52.9561 179.331C52.8721 179.662 52.8301 180.038 52.8301 180.458C52.8301 180.878 52.8721 181.254 52.9561 181.585C53.0448 181.916 53.1754 182.196 53.3481 182.425C53.5254 182.649 53.7448 182.822 54.0061 182.943C54.2674 183.064 54.5754 183.125 54.9301 183.125ZM60.1194 184V177.973L59.3354 177.882C59.2374 177.859 59.1557 177.824 59.0904 177.777C59.0297 177.726 58.9994 177.653 58.9994 177.56V177.049H60.1194V176.363C60.1194 175.957 60.1754 175.598 60.2874 175.285C60.404 174.968 60.5674 174.702 60.7774 174.487C60.992 174.268 61.2487 174.102 61.5474 173.99C61.846 173.878 62.182 173.822 62.5554 173.822C62.8727 173.822 63.1667 173.869 63.4374 173.962L63.4094 174.585C63.4047 174.678 63.365 174.734 63.2904 174.753C63.2157 174.772 63.1107 174.781 62.9754 174.781H62.7584C62.5437 174.781 62.3477 174.809 62.1704 174.865C61.9977 174.921 61.8484 175.012 61.7224 175.138C61.5964 175.264 61.4984 175.43 61.4284 175.635C61.363 175.84 61.3304 176.095 61.3304 176.398V177.049H63.3814V177.952H61.3724V184H60.1194ZM70.0702 176.797C70.4949 176.797 70.8869 176.869 71.2462 177.014C71.6055 177.154 71.9159 177.359 72.1772 177.63C72.4385 177.896 72.6415 178.227 72.7862 178.624C72.9355 179.016 73.0102 179.464 73.0102 179.968C73.0102 180.164 72.9892 180.295 72.9472 180.36C72.9052 180.425 72.8259 180.458 72.7092 180.458H67.9912C68.0005 180.906 68.0612 181.296 68.1732 181.627C68.2852 181.958 68.4392 182.236 68.6352 182.46C68.8312 182.679 69.0645 182.845 69.3352 182.957C69.6059 183.064 69.9092 183.118 70.2452 183.118C70.5579 183.118 70.8262 183.083 71.0502 183.013C71.2789 182.938 71.4749 182.859 71.6382 182.775C71.8015 182.691 71.9369 182.614 72.0442 182.544C72.1562 182.469 72.2519 182.432 72.3312 182.432C72.4339 182.432 72.5132 182.472 72.5692 182.551L72.9192 183.006C72.7652 183.193 72.5809 183.356 72.3662 183.496C72.1515 183.631 71.9205 183.743 71.6732 183.832C71.4305 183.921 71.1785 183.986 70.9172 184.028C70.6559 184.075 70.3969 184.098 70.1402 184.098C69.6502 184.098 69.1975 184.016 68.7822 183.853C68.3715 183.685 68.0145 183.442 67.7112 183.125C67.4125 182.803 67.1792 182.406 67.0112 181.935C66.8432 181.464 66.7592 180.922 66.7592 180.311C66.7592 179.816 66.8339 179.354 66.9832 178.925C67.1372 178.496 67.3565 178.125 67.6412 177.812C67.9259 177.495 68.2735 177.247 68.6842 177.07C69.0949 176.888 69.5569 176.797 70.0702 176.797ZM70.0982 177.714C69.4962 177.714 69.0225 177.889 68.6772 178.239C68.3319 178.584 68.1172 179.065 68.0332 179.681H71.8902C71.8902 179.392 71.8505 179.128 71.7712 178.89C71.6919 178.647 71.5752 178.44 71.4212 178.267C71.2672 178.09 71.0782 177.954 70.8542 177.861C70.6349 177.763 70.3829 177.714 70.0982 177.714ZM75.8402 180.367L73.4532 176.909H74.6502C74.7528 176.909 74.8275 176.925 74.8742 176.958C74.9208 176.991 74.9628 177.037 75.0002 177.098L76.7362 179.758C76.7782 179.627 76.8388 179.497 76.9182 179.366L78.4442 177.126C78.4908 177.061 78.5375 177.009 78.5842 176.972C78.6308 176.93 78.6892 176.909 78.7592 176.909H79.9072L77.5202 180.297L80.0052 184H78.8082C78.7055 184 78.6238 183.974 78.5632 183.923C78.5072 183.867 78.4605 183.806 78.4232 183.741L76.6382 180.962C76.6055 181.097 76.5565 181.219 76.4912 181.326L74.8392 183.741C74.7925 183.806 74.7412 183.867 74.6852 183.923C74.6338 183.974 74.5615 184 74.4682 184H73.3552L75.8402 180.367ZM81.2359 186.401V176.909H81.9779C82.1552 176.909 82.2672 176.995 82.3139 177.168L82.4189 178.008C82.7222 177.639 83.0675 177.343 83.4549 177.119C83.8469 176.895 84.2972 176.783 84.8059 176.783C85.2119 176.783 85.5805 176.862 85.9119 177.021C86.2432 177.175 86.5255 177.406 86.7589 177.714C86.9922 178.017 87.1719 178.395 87.2979 178.848C87.4239 179.301 87.4869 179.821 87.4869 180.409C87.4869 180.932 87.4169 181.419 87.2769 181.872C87.1369 182.32 86.9362 182.71 86.6749 183.041C86.4135 183.368 86.0915 183.627 85.7089 183.818C85.3309 184.005 84.9039 184.098 84.4279 184.098C83.9892 184.098 83.6135 184.026 83.3009 183.881C82.9929 183.736 82.7199 183.531 82.4819 183.265V186.401H81.2359ZM84.3929 177.791C83.9869 177.791 83.6299 177.884 83.3219 178.071C83.0185 178.258 82.7385 178.521 82.4819 178.862V182.292C82.7105 182.6 82.9602 182.817 83.2309 182.943C83.5062 183.069 83.8119 183.132 84.1479 183.132C84.8059 183.132 85.3122 182.896 85.6669 182.425C86.0215 181.954 86.1989 181.282 86.1989 180.409C86.1989 179.947 86.1569 179.55 86.0729 179.219C85.9935 178.888 85.8769 178.617 85.7229 178.407C85.5689 178.192 85.3799 178.036 85.1559 177.938C84.9319 177.84 84.6775 177.791 84.3929 177.791ZM91.7675 176.797C92.1921 176.797 92.5841 176.869 92.9435 177.014C93.3028 177.154 93.6131 177.359 93.8745 177.63C94.1358 177.896 94.3388 178.227 94.4835 178.624C94.6328 179.016 94.7075 179.464 94.7075 179.968C94.7075 180.164 94.6865 180.295 94.6445 180.36C94.6025 180.425 94.5231 180.458 94.4065 180.458H89.6885C89.6978 180.906 89.7585 181.296 89.8705 181.627C89.9825 181.958 90.1365 182.236 90.3325 182.46C90.5285 182.679 90.7618 182.845 91.0325 182.957C91.3031 183.064 91.6065 183.118 91.9425 183.118C92.2551 183.118 92.5235 183.083 92.7475 183.013C92.9761 182.938 93.1721 182.859 93.3355 182.775C93.4988 182.691 93.6341 182.614 93.7415 182.544C93.8535 182.469 93.9491 182.432 94.0285 182.432C94.1311 182.432 94.2105 182.472 94.2665 182.551L94.6165 183.006C94.4625 183.193 94.2781 183.356 94.0635 183.496C93.8488 183.631 93.6178 183.743 93.3705 183.832C93.1278 183.921 92.8758 183.986 92.6145 184.028C92.3531 184.075 92.0941 184.098 91.8375 184.098C91.3475 184.098 90.8948 184.016 90.4795 183.853C90.0688 183.685 89.7118 183.442 89.4085 183.125C89.1098 182.803 88.8765 182.406 88.7085 181.935C88.5405 181.464 88.4565 180.922 88.4565 180.311C88.4565 179.816 88.5311 179.354 88.6805 178.925C88.8345 178.496 89.0538 178.125 89.3385 177.812C89.6231 177.495 89.9708 177.247 90.3815 177.07C90.7921 176.888 91.2541 176.797 91.7675 176.797ZM91.7955 177.714C91.1935 177.714 90.7198 177.889 90.3745 178.239C90.0291 178.584 89.8145 179.065 89.7305 179.681H93.5875C93.5875 179.392 93.5478 179.128 93.4685 178.89C93.3891 178.647 93.2725 178.44 93.1185 178.267C92.9645 178.09 92.7755 177.954 92.5515 177.861C92.3321 177.763 92.0801 177.714 91.7955 177.714ZM96.3023 184V176.909H97.0163C97.1516 176.909 97.2449 176.935 97.2963 176.986C97.3476 177.037 97.3826 177.126 97.4013 177.252L97.4853 178.358C97.7279 177.863 98.0266 177.478 98.3813 177.203C98.7406 176.923 99.1606 176.783 99.6413 176.783C99.8373 176.783 100.015 176.806 100.173 176.853C100.332 176.895 100.479 176.956 100.614 177.035L100.453 177.966C100.421 178.083 100.348 178.141 100.236 178.141C100.171 178.141 100.071 178.12 99.9353 178.078C99.7999 178.031 99.6109 178.008 99.3683 178.008C98.9343 178.008 98.5703 178.134 98.2763 178.386C97.9869 178.638 97.7443 179.004 97.5483 179.485V184H96.3023ZM103.335 176.909V184H102.089V176.909H103.335ZM103.615 174.683C103.615 174.804 103.589 174.919 103.538 175.026C103.491 175.129 103.426 175.222 103.342 175.306C103.262 175.385 103.169 175.448 103.062 175.495C102.954 175.542 102.84 175.565 102.719 175.565C102.597 175.565 102.483 175.542 102.376 175.495C102.273 175.448 102.18 175.385 102.096 175.306C102.016 175.222 101.953 175.129 101.907 175.026C101.86 174.919 101.837 174.804 101.837 174.683C101.837 174.562 101.86 174.447 101.907 174.34C101.953 174.228 102.016 174.132 102.096 174.053C102.18 173.969 102.273 173.904 102.376 173.857C102.483 173.81 102.597 173.787 102.719 173.787C102.84 173.787 102.954 173.81 103.062 173.857C103.169 173.904 103.262 173.969 103.342 174.053C103.426 174.132 103.491 174.228 103.538 174.34C103.589 174.447 103.615 174.562 103.615 174.683ZM108.338 176.797C108.762 176.797 109.154 176.869 109.514 177.014C109.873 177.154 110.183 177.359 110.445 177.63C110.706 177.896 110.909 178.227 111.054 178.624C111.203 179.016 111.278 179.464 111.278 179.968C111.278 180.164 111.257 180.295 111.215 180.36C111.173 180.425 111.093 180.458 110.977 180.458H106.259C106.268 180.906 106.329 181.296 106.441 181.627C106.553 181.958 106.707 182.236 106.903 182.46C107.099 182.679 107.332 182.845 107.603 182.957C107.873 183.064 108.177 183.118 108.513 183.118C108.825 183.118 109.094 183.083 109.318 183.013C109.546 182.938 109.742 182.859 109.906 182.775C110.069 182.691 110.204 182.614 110.312 182.544C110.424 182.469 110.519 182.432 110.599 182.432C110.701 182.432 110.781 182.472 110.837 182.551L111.187 183.006C111.033 183.193 110.848 183.356 110.634 183.496C110.419 183.631 110.188 183.743 109.941 183.832C109.698 183.921 109.446 183.986 109.185 184.028C108.923 184.075 108.664 184.098 108.408 184.098C107.918 184.098 107.465 184.016 107.05 183.853C106.639 183.685 106.282 183.442 105.979 183.125C105.68 182.803 105.447 182.406 105.279 181.935C105.111 181.464 105.027 180.922 105.027 180.311C105.027 179.816 105.101 179.354 105.251 178.925C105.405 178.496 105.624 178.125 105.909 177.812C106.193 177.495 106.541 177.247 106.952 177.07C107.362 176.888 107.824 176.797 108.338 176.797ZM108.366 177.714C107.764 177.714 107.29 177.889 106.945 178.239C106.599 178.584 106.385 179.065 106.301 179.681H110.158C110.158 179.392 110.118 179.128 110.039 178.89C109.959 178.647 109.843 178.44 109.689 178.267C109.535 178.09 109.346 177.954 109.122 177.861C108.902 177.763 108.65 177.714 108.366 177.714ZM112.873 184V176.909H113.615C113.792 176.909 113.904 176.995 113.951 177.168L114.049 177.938C114.357 177.597 114.7 177.322 115.078 177.112C115.46 176.902 115.901 176.797 116.401 176.797C116.788 176.797 117.129 176.862 117.423 176.993C117.721 177.119 117.969 177.301 118.165 177.539C118.365 177.772 118.517 178.055 118.62 178.386C118.722 178.717 118.774 179.084 118.774 179.485V184H117.528V179.485C117.528 178.948 117.404 178.533 117.157 178.239C116.914 177.94 116.541 177.791 116.037 177.791C115.668 177.791 115.323 177.88 115.001 178.057C114.683 178.234 114.389 178.475 114.119 178.778V184H112.873ZM125.489 178.169C125.452 178.22 125.414 178.26 125.377 178.288C125.34 178.316 125.286 178.33 125.216 178.33C125.146 178.33 125.069 178.302 124.985 178.246C124.906 178.185 124.803 178.12 124.677 178.05C124.551 177.98 124.397 177.917 124.215 177.861C124.038 177.8 123.818 177.77 123.557 177.77C123.212 177.77 122.906 177.833 122.64 177.959C122.374 178.08 122.15 178.258 121.968 178.491C121.791 178.724 121.655 179.007 121.562 179.338C121.473 179.669 121.429 180.04 121.429 180.451C121.429 180.88 121.478 181.263 121.576 181.599C121.674 181.93 121.812 182.21 121.989 182.439C122.166 182.663 122.381 182.836 122.633 182.957C122.89 183.074 123.177 183.132 123.494 183.132C123.797 183.132 124.047 183.097 124.243 183.027C124.439 182.952 124.602 182.871 124.733 182.782C124.864 182.693 124.971 182.614 125.055 182.544C125.139 182.469 125.223 182.432 125.307 182.432C125.414 182.432 125.494 182.472 125.545 182.551L125.895 183.006C125.587 183.384 125.202 183.662 124.74 183.839C124.278 184.012 123.79 184.098 123.277 184.098C122.834 184.098 122.421 184.016 122.038 183.853C121.66 183.69 121.331 183.454 121.051 183.146C120.771 182.833 120.549 182.451 120.386 181.998C120.227 181.545 120.148 181.03 120.148 180.451C120.148 179.924 120.22 179.436 120.365 178.988C120.514 178.54 120.729 178.155 121.009 177.833C121.294 177.506 121.644 177.252 122.059 177.07C122.474 176.888 122.95 176.797 123.487 176.797C123.982 176.797 124.42 176.879 124.803 177.042C125.186 177.201 125.524 177.427 125.818 177.721L125.489 178.169ZM129.994 176.797C130.419 176.797 130.811 176.869 131.17 177.014C131.529 177.154 131.84 177.359 132.101 177.63C132.362 177.896 132.565 178.227 132.71 178.624C132.859 179.016 132.934 179.464 132.934 179.968C132.934 180.164 132.913 180.295 132.871 180.36C132.829 180.425 132.75 180.458 132.633 180.458H127.915C127.924 180.906 127.985 181.296 128.097 181.627C128.209 181.958 128.363 182.236 128.559 182.46C128.755 182.679 128.988 182.845 129.259 182.957C129.53 183.064 129.833 183.118 130.169 183.118C130.482 183.118 130.75 183.083 130.974 183.013C131.203 182.938 131.399 182.859 131.562 182.775C131.725 182.691 131.861 182.614 131.968 182.544C132.08 182.469 132.176 182.432 132.255 182.432C132.358 182.432 132.437 182.472 132.493 182.551L132.843 183.006C132.689 183.193 132.505 183.356 132.29 183.496C132.075 183.631 131.844 183.743 131.597 183.832C131.354 183.921 131.102 183.986 130.841 184.028C130.58 184.075 130.321 184.098 130.064 184.098C129.574 184.098 129.121 184.016 128.706 183.853C128.295 183.685 127.938 183.442 127.635 183.125C127.336 182.803 127.103 182.406 126.935 181.935C126.767 181.464 126.683 180.922 126.683 180.311C126.683 179.816 126.758 179.354 126.907 178.925C127.061 178.496 127.28 178.125 127.565 177.812C127.85 177.495 128.197 177.247 128.608 177.07C129.019 176.888 129.481 176.797 129.994 176.797ZM130.022 177.714C129.42 177.714 128.946 177.889 128.601 178.239C128.256 178.584 128.041 179.065 127.957 179.681H131.814C131.814 179.392 131.774 179.128 131.695 178.89C131.616 178.647 131.499 178.44 131.345 178.267C131.191 178.09 131.002 177.954 130.778 177.861C130.559 177.763 130.307 177.714 130.022 177.714Z" fill="#424551"/>
</g>
<defs>
<clipPath id="clip0_1473_4665">
<rect width="148" height="189" fill="white"/>
</clipPath>
<clipPath id="clip1_1473_4665">
<rect width="148" height="148" fill="white"/>
</clipPath>
</defs>
</svg>
